<?xml version="1.0" encoding="UTF-8"?>
<!DOCTYPE svg PUBLIC "-//W3C//DTD SVG 1.1//EN"
    "http://www.w3.org/Graphics/SVG/1.1/DTD/svg11.dtd"><svg font-size="1" stroke="rgb(0,0,0)" width="200.0000" xmlns="http://www.w3.org/2000/svg" viewBox="0.0 0.0 200.0 185.40682837480773" xmlns:xlink="http://www.w3.org/1999/xlink" version="1.1" stroke-opacity="1" height="185.4068"><defs></defs><g stroke="rgb(0,0,0)" fill="rgb(211,211,211)" stroke-miterlimit="10.0" stroke-linecap="butt" stroke-linejoin="miter" stroke-opacity="1.0" stroke-width="0.7702608978777157" fill-opacity="1.0"><path d="M 48.4346,100.1094 l 1.7789,44.4592 l 32.6953,-30.1796 Z"/></g><g stroke="rgb(0,0,0)" fill="rgb(128,128,128)" stroke-miterlimit="10.0" stroke-linecap="butt" stroke-linejoin="miter" stroke-opacity="1.0" stroke-width="0.7702608978777157" fill-opacity="1.0"><path d="M 41.6387,95.8615 l 5.3141,43.2431 l 26.2237,-34.7926 Z"/></g><g stroke="rgb(0,0,0)" fill="rgb(169,169,169)" stroke-miterlimit="10.0" stroke-linecap="butt" stroke-linejoin="miter" stroke-opacity="1.0" stroke-width="0.7702608978777157" fill-opacity="1.0"><path d="M 33.3333,93.0316 l 13.9930,40.3942 l 13.9930,-40.3942 Z"/></g><g stroke="rgb(0,0,0)" fill="rgb(211,211,211)" stroke-miterlimit="10.0" stroke-linecap="butt" stroke-linejoin="miter" stroke-opacity="1.0" stroke-width="0.7702608978777157" fill-opacity="1.0"><path d="M 151.5654,100.1094 l -1.7789,44.4592 l -32.6953,-30.1796 Z"/></g><g stroke="rgb(0,0,0)" fill="rgb(128,128,128)" stroke-miterlimit="10.0" stroke-linecap="butt" stroke-linejoin="miter" stroke-opacity="1.0" stroke-width="0.7702608978777157" fill-opacity="1.0"><path d="M 158.3613,95.8615 l -5.3141,43.2431 l -26.2237,-34.7926 Z"/></g><g stroke="rgb(0,0,0)" fill="rgb(169,169,169)" stroke-miterlimit="10.0" stroke-linecap="butt" stroke-linejoin="miter" stroke-opacity="1.0" stroke-width="0.7702608978777157" fill-opacity="1.0"><path d="M 166.6667,93.0316 l -13.9930,40.3942 l -13.9930,-40.3942 Z"/></g><g stroke="rgb(0,0,0)" fill="rgb(211,211,211)" stroke-miterlimit="10.0" stroke-linecap="butt" stroke-linejoin="miter" stroke-opacity="1.0" stroke-width="0.7702608978777157" fill-opacity="1.0"><path d="M 143.0090,88.7000 l -0.4128,-21.3706 l -12.8953,17.0466 Z"/></g><g stroke="rgb(0,0,0)" fill="rgb(211,211,211)" stroke-miterlimit="10.0" stroke-linecap="butt" stroke-linejoin="miter" stroke-opacity="1.0" stroke-width="0.7702608978777157" fill-opacity="1.0"><path d="M 70.2992,84.3759 l -12.8953,-17.0466 l -0.4128,21.3706 Z"/></g><g stroke="rgb(255,192,203)" stroke-dashoffset="0.0" fill="rgb(255,165,0)" stroke-miterlimit="10.0" stroke-dasharray="23.321613632051292,2.3321613632051292" stroke-linecap="butt" stroke-linejoin="miter" stroke-opacity="1.0" stroke-width="1.9256522446942894" fill-opacity="1.0"><path d="M 146.6432,107.8625 c 0.0000,-25.7603 -20.8829,-46.6432 -46.6432 -46.6432c -25.7603,-0.0000 -46.6432,20.8829 -46.6432 46.6432c -0.0000,25.7603 20.8829,46.6432 46.6432 46.6432c 25.7603,0.0000 46.6432,-20.8829 46.6432 -46.6432Z"/></g><g stroke="rgb(0,0,0)" fill="rgb(0,0,0)" stroke-miterlimit="10.0" stroke-linecap="butt" stroke-linejoin="miter" stroke-opacity="1.0" stroke-width="0.5" fill-opacity="0.0"><path d="M 132.6503,117.1911 h 27.9859 "/></g><g stroke="rgb(0,0,0)" fill="rgb(0,0,0)" stroke-miterlimit="10.0" stroke-linecap="butt" stroke-linejoin="miter" stroke-opacity="1.0" stroke-width="0.5" fill-opacity="0.0"><path d="M 39.3638,117.1911 h 27.9859 "/></g><g stroke="rgb(0,0,0)" fill="rgb(0,0,0)" stroke-miterlimit="10.0" stroke-linecap="butt" stroke-linejoin="miter" stroke-opacity="1.0" stroke-width="0.5" fill-opacity="0.0"><path d="M 132.6503,112.5268 h 27.9859 "/></g><g stroke="rgb(0,0,0)" fill="rgb(0,0,0)" stroke-miterlimit="10.0" stroke-linecap="butt" stroke-linejoin="miter" stroke-opacity="1.0" stroke-width="0.5" fill-opacity="0.0"><path d="M 39.3638,112.5268 h 27.9859 "/></g><g stroke="rgb(0,0,0)" fill="rgb(0,0,0)" stroke-miterlimit="10.0" stroke-linecap="butt" stroke-linejoin="miter" stroke-opacity="1.0" stroke-width="0.5" fill-opacity="0.0"><path d="M 132.6503,107.8625 h 27.9859 "/></g><g stroke="rgb(0,0,0)" fill="rgb(0,0,0)" stroke-miterlimit="10.0" stroke-linecap="butt" stroke-linejoin="miter" stroke-opacity="1.0" stroke-width="0.5" fill-opacity="0.0"><path d="M 39.3638,107.8625 h 27.9859 "/></g><g stroke="rgb(0,0,0)" fill="rgb(0,0,0)" stroke-miterlimit="10.0" stroke-linecap="butt" stroke-linejoin="miter" stroke-opacity="1.0" stroke-width="0.5" fill-opacity="0.0"><path d="M 90.6714,126.5198 h 18.6573 "/></g><g stroke="rgb(0,0,0)" fill="rgb(0,0,0)" stroke-miterlimit="10.0" stroke-linecap="butt" stroke-linejoin="miter" stroke-opacity="1.0" stroke-width="0.5" fill-opacity="0.0"><path d="M 100.0000,107.8625 v 18.6573 "/></g><g stroke="rgb(0,0,0)" fill="rgb(128,0,128)" stroke-miterlimit="10.0" stroke-linecap="butt" stroke-linejoin="miter" stroke-opacity="1.0" stroke-width="0.7702608978777157" fill-opacity="1.0"><path d="M 93.9364,104.3616 l 6.0636,10.5025 l 6.0636,-10.5025 Z"/></g><g stroke="rgb(0,0,0)" fill="rgb(0,0,255)" stroke-miterlimit="10.0" stroke-linecap="butt" stroke-linejoin="miter" stroke-opacity="1.0" stroke-width="0.7702608978777157" fill-opacity="1.0"><path d="M 124.7209,96.2017 c 0.0000,-3.3488 -2.7148,-6.0636 -6.0636 -6.0636c -3.3488,-0.0000 -6.0636,2.7148 -6.0636 6.0636c -0.0000,3.3488 2.7148,6.0636 6.0636 6.0636c 3.3488,0.0000 6.0636,-2.7148 6.0636 -6.0636Z"/></g><g stroke="rgb(0,0,0)" fill="rgb(255,0,0)" stroke-miterlimit="10.0" stroke-linecap="butt" stroke-linejoin="miter" stroke-opacity="1.0" stroke-width="0.7702608978777157" fill-opacity="1.0"><path d="M 87.4063,96.2017 c 0.0000,-3.3488 -2.7148,-6.0636 -6.0636 -6.0636c -3.3488,-0.0000 -6.0636,2.7148 -6.0636 6.0636c -0.0000,3.3488 2.7148,6.0636 6.0636 6.0636c 3.3488,0.0000 6.0636,-2.7148 6.0636 -6.0636Z"/></g><g stroke="rgb(0,0,0)" fill="rgb(255,192,203)" stroke-miterlimit="10.0" stroke-linecap="butt" stroke-linejoin="miter" stroke-opacity="1.0" stroke-width="0.7702608978777157" fill-opacity="1.0"><path d="M 87.4063,96.2017 c 0.0000,-3.3488 -2.7148,-6.0636 -6.0636 -6.0636c -3.3488,-0.0000 -6.0636,2.7148 -6.0636 6.0636c -0.0000,3.3488 2.7148,6.0636 6.0636 6.0636c 3.3488,0.0000 6.0636,-2.7148 6.0636 -6.0636Z"/></g><g stroke="rgb(0,0,0)" fill="rgb(0,0,0)" stroke-miterlimit="10.0" stroke-linecap="butt" stroke-linejoin="miter" stroke-opacity="1.0" stroke-width="5.0e-2" fill-opacity="0.0"><path d="M 116.0919,72.8800 v 3.4982 "/></g><g stroke="rgb(0,0,0)" fill="rgb(0,0,0)" stroke-miterlimit="10.0" stroke-linecap="butt" stroke-linejoin="miter" stroke-opacity="1.0" stroke-width="0.1" fill-opacity="0.0"><path d="M 116.0919,76.3783 h -2.7986 "/></g><g stroke="rgb(0,0,0)" fill="rgb(0,0,0)" stroke-miterlimit="10.0" stroke-linecap="butt" stroke-linejoin="miter" stroke-opacity="1.0" stroke-width="0.1" fill-opacity="0.0"><path d="M 116.0919,76.3783 h 2.7986 "/></g><g stroke="rgb(0,0,0)" fill="rgb(0,0,0)" stroke-miterlimit="10.0" stroke-linecap="butt" stroke-linejoin="miter" stroke-opacity="1.0" stroke-width="0.1" fill-opacity="0.0"><path d="M 115.3923,76.3783 l -1.3993,-2.0989 "/></g><g stroke="rgb(0,0,0)" fill="rgb(0,0,0)" stroke-miterlimit="10.0" stroke-linecap="butt" stroke-linejoin="miter" stroke-opacity="1.0" stroke-width="0.1" fill-opacity="0.0"><path d="M 115.3923,76.3783 l -1.3993,-2.0989 "/></g><g stroke="rgb(0,0,0)" fill="rgb(0,0,0)" stroke-miterlimit="10.0" stroke-linecap="butt" stroke-linejoin="miter" stroke-opacity="1.0" stroke-width="0.1" fill-opacity="0.0"><path d="M 116.7916,76.3783 l 1.3993,2.0989 "/></g><g stroke="rgb(0,0,0)" fill="rgb(0,0,0)" stroke-miterlimit="10.0" stroke-linecap="butt" stroke-linejoin="miter" stroke-opacity="1.0" stroke-width="0.1" fill-opacity="0.0"><path d="M 115.3923,76.3783 l -1.3993,2.0989 "/></g><g stroke="rgb(0,0,0)" fill="rgb(0,0,0)" stroke-miterlimit="10.0" stroke-linecap="butt" stroke-linejoin="miter" stroke-opacity="1.0" stroke-width="0.0" fill-opacity="1.0"><path d="M 117.1414,76.3783 c 0.0000,-0.5796 -0.4699,-1.0495 -1.0495 -1.0495c -0.5796,-0.0000 -1.0495,0.4699 -1.0495 1.0495c -0.0000,0.5796 0.4699,1.0495 1.0495 1.0495c 0.5796,0.0000 1.0495,-0.4699 1.0495 -1.0495Z"/></g><g stroke="rgb(0,0,0)" fill="rgb(255,255,0)" stroke-miterlimit="10.0" stroke-linecap="butt" stroke-linejoin="miter" stroke-opacity="1.0" stroke-width="0.5" fill-opacity="1.0"><path d="M 100.0000,37.8976 l -13.9930,27.9859 h 27.9859 Z"/></g><g stroke="rgb(0,0,0)" fill="rgb(255,255,0)" stroke-miterlimit="10.0" stroke-linecap="butt" stroke-linejoin="miter" stroke-opacity="1.0" stroke-width="0.5" fill-opacity="1.0"><path d="M 119.5109,69.3818 l -3.0296,-1.7491 v 3.4982 Z"/></g><g stroke="rgb(0,0,0)" fill="rgb(255,255,0)" stroke-miterlimit="10.0" stroke-linecap="butt" stroke-linejoin="miter" stroke-opacity="1.0" stroke-width="0.5" fill-opacity="1.0"><path d="M 112.5144,69.3818 l -3.0296,-1.7491 v 3.4982 Z"/></g><g stroke="rgb(0,0,0)" fill="rgb(255,255,0)" stroke-miterlimit="10.0" stroke-linecap="butt" stroke-linejoin="miter" stroke-opacity="1.0" stroke-width="0.5" fill-opacity="1.0"><path d="M 105.5180,69.3818 l -3.0296,-1.7491 v 3.4982 Z"/></g><g stroke="rgb(0,0,0)" fill="rgb(255,255,0)" stroke-miterlimit="10.0" stroke-linecap="butt" stroke-linejoin="miter" stroke-opacity="1.0" stroke-width="0.5" fill-opacity="1.0"><path d="M 98.5215,69.3818 l -3.0296,-1.7491 v 3.4982 Z"/></g><g stroke="rgb(0,0,0)" fill="rgb(255,255,0)" stroke-miterlimit="10.0" stroke-linecap="butt" stroke-linejoin="miter" stroke-opacity="1.0" stroke-width="0.5" fill-opacity="1.0"><path d="M 91.5250,69.3818 l -3.0296,-1.7491 v 3.4982 Z"/></g><g stroke="rgb(0,0,0)" fill="rgb(255,255,0)" stroke-miterlimit="10.0" stroke-linecap="butt" stroke-linejoin="miter" stroke-opacity="1.0" stroke-width="0.5" fill-opacity="1.0"><path d="M 84.5285,69.3818 l -3.0296,-1.7491 v 3.4982 Z"/></g><g stroke="rgb(0,0,0)" fill="rgb(0,0,0)" stroke-miterlimit="10.0" stroke-linecap="butt" stroke-linejoin="miter" stroke-opacity="1.0" stroke-width="0.0" fill-opacity="1.0"><path d="M 120.9895,69.3818 h 0.0000 c 0.0000,-1.9320 -1.5662,-3.4982 -3.4982 -3.4982h -34.9824 c -1.9320,-0.0000 -3.4982,1.5662 -3.4982 3.4982h 0.0000 c -0.0000,1.9320 1.5662,3.4982 3.4982 3.4982h 34.9824 c 1.9320,0.0000 3.4982,-1.5662 3.4982 -3.4982Z"/></g><g stroke="rgb(0,0,0)" fill="rgb(0,128,0)" stroke-miterlimit="10.0" stroke-linecap="butt" stroke-linejoin="miter" stroke-opacity="1.0" stroke-width="0.0" fill-opacity="1.0"><path d="M 111.5442,59.9365 l -0.0000,-2.0989 h -23.0884 l -0.0000,2.0989 Z"/></g><g stroke="rgb(0,0,0)" fill="rgb(255,165,0)" stroke-miterlimit="10.0" stroke-linecap="butt" stroke-linejoin="miter" stroke-opacity="1.0" stroke-width="0.0" fill-opacity="1.0"><path d="M 102.0989,59.5867 v -1.3993 c 0.0000,-0.3864 -0.3132,-0.6996 -0.6996 -0.6996h -2.7986 c -0.3864,-0.0000 -0.6996,0.3132 -0.6996 0.6996v 1.3993 c -0.0000,0.3864 0.3132,0.6996 0.6996 0.6996h 2.7986 c 0.3864,0.0000 0.6996,-0.3132 0.6996 -0.6996Z"/></g><g stroke="rgb(0,0,0)" fill="rgb(0,0,0)" stroke-miterlimit="10.0" stroke-linecap="butt" stroke-linejoin="miter" stroke-opacity="1.0" stroke-width="0.0" fill-opacity="1.0"><path d="M 101.3993,58.8871 h 0.0000 c 0.0000,-0.3864 -0.3132,-0.6996 -0.6996 -0.6996h -1.3993 c -0.3864,-0.0000 -0.6996,0.3132 -0.6996 0.6996h 0.0000 c -0.0000,0.3864 0.3132,0.6996 0.6996 0.6996h 1.3993 c 0.3864,0.0000 0.6996,-0.3132 0.6996 -0.6996Z"/></g></svg>