<?xml version="1.0" encoding="UTF-8"?>
<!DOCTYPE svg PUBLIC "-//W3C//DTD SVG 1.1//EN"
    "http://www.w3.org/Graphics/SVG/1.1/DTD/svg11.dtd"><svg font-size="1" stroke="rgb(0,0,0)" width="200.0000" xmlns="http://www.w3.org/2000/svg" viewBox="0.0 0.0 200.0 164.1148748033418" xmlns:xlink="http://www.w3.org/1999/xlink" version="1.1" stroke-opacity="1" height="164.1149"><defs></defs><g stroke="rgb(0,0,0)" fill="rgb(211,211,211)" stroke-miterlimit="10.0" stroke-linecap="butt" stroke-linejoin="miter" stroke-opacity="1.0" stroke-width="0.724684482634128" fill-opacity="1.0"><path d="M 159.2955,34.1786 l -15.3671,14.1847 l -0.8361,-20.8963 Z"/></g><g stroke="rgb(0,0,0)" fill="rgb(128,128,128)" stroke-miterlimit="10.0" stroke-linecap="butt" stroke-linejoin="miter" stroke-opacity="1.0" stroke-width="0.724684482634128" fill-opacity="1.0"><path d="M 162.9659,35.0255 l -16.1379,12.6056 l 2.8479,-20.2786 Z"/></g><g stroke="rgb(0,0,0)" fill="rgb(169,169,169)" stroke-miterlimit="10.0" stroke-linecap="butt" stroke-linejoin="miter" stroke-opacity="1.0" stroke-width="0.724684482634128" fill-opacity="1.0"><path d="M 166.6667,36.8452 l -18.0755,8.7744 l 8.7744,-18.0755 Z"/></g><g stroke="rgb(0,0,0)" fill="rgb(211,211,211)" stroke-miterlimit="10.0" stroke-linecap="butt" stroke-linejoin="miter" stroke-opacity="1.0" stroke-width="0.724684482634128" fill-opacity="1.0"><path d="M 132.4396,61.0346 l 14.1847,-15.3671 l -20.8963,-0.8361 Z"/></g><g stroke="rgb(0,0,0)" fill="rgb(128,128,128)" stroke-miterlimit="10.0" stroke-linecap="butt" stroke-linejoin="miter" stroke-opacity="1.0" stroke-width="0.724684482634128" fill-opacity="1.0"><path d="M 133.2864,64.7050 l 12.6056,-16.1379 l -20.2786,2.8479 Z"/></g><g stroke="rgb(0,0,0)" fill="rgb(169,169,169)" stroke-miterlimit="10.0" stroke-linecap="butt" stroke-linejoin="miter" stroke-opacity="1.0" stroke-width="0.724684482634128" fill-opacity="1.0"><path d="M 135.1062,68.4058 l 8.7744,-18.0755 l -18.0755,8.7744 Z"/></g><g stroke="rgb(0,0,0)" fill="rgb(70,0,70)" stroke-miterlimit="10.0" stroke-linecap="butt" stroke-linejoin="miter" stroke-opacity="1.0" stroke-width="0.724684482634128" fill-opacity="1.0"><path d="M 137.2559,34.3444 c -0.4281,-0.4281 -1.1221,-0.4281 -1.5502 -0.0000c -0.4281,0.4281 -0.4281,1.1221 -0.0000 1.5502c 0.4281,0.4281 1.1221,0.4281 1.5502 0.0000c 0.4281,-0.4281 0.4281,-1.1221 0.0000 -1.5502Z"/></g><g stroke="rgb(0,0,0)" fill="rgb(70,0,70)" stroke-miterlimit="10.0" stroke-linecap="butt" stroke-linejoin="miter" stroke-opacity="1.0" stroke-width="0.724684482634128" fill-opacity="1.0"><path d="M 134.1555,37.4448 c -0.4281,-0.4281 -1.1221,-0.4281 -1.5502 -0.0000c -0.4281,0.4281 -0.4281,1.1221 -0.0000 1.5502c 0.4281,0.4281 1.1221,0.4281 1.5502 0.0000c 0.4281,-0.4281 0.4281,-1.1221 0.0000 -1.5502Z"/></g><g stroke="rgb(0,0,0)" fill="rgb(70,0,70)" stroke-miterlimit="10.0" stroke-linecap="butt" stroke-linejoin="miter" stroke-opacity="1.0" stroke-width="0.724684482634128" fill-opacity="1.0"><path d="M 140.3562,37.4448 c -1.2842,-1.2842 -3.3663,-1.2842 -4.6505 -0.0000c -1.2842,1.2842 -1.2842,3.3663 -0.0000 4.6505c 1.2842,1.2842 3.3663,1.2842 4.6505 0.0000c 1.2842,-1.2842 1.2842,-3.3663 0.0000 -4.6505Z"/></g><g stroke="rgb(0,0,0)" fill="rgb(50,0,50)" stroke-miterlimit="10.0" stroke-linecap="butt" stroke-linejoin="miter" stroke-opacity="1.0" stroke-width="0.724684482634128" fill-opacity="1.0"><path d="M 151.9825,44.4206 c -4.2807,-4.2807 -9.8330,-5.6688 -12.4014 -3.1004c -2.5684,2.5684 -1.1803,8.1207 3.1004 12.4014c 4.2807,4.2807 9.8330,5.6688 12.4014 3.1004c 2.5684,-2.5684 1.1803,-8.1207 -3.1004 -12.4014Z"/></g><g stroke="rgb(0,0,0)" fill="rgb(139,69,19)" stroke-miterlimit="10.0" stroke-linecap="butt" stroke-linejoin="miter" stroke-opacity="1.0" stroke-width="0.724684482634128" fill-opacity="1.0"><path d="M 149.1477,45.1074 c -0.9356,0.2507 -1.4908,1.2124 -1.2401 2.1480c 0.2507,0.9356 1.2124,1.4908 2.1480 1.2401c 0.9356,-0.2507 1.4908,-1.2124 1.2401 -2.1480c -0.2507,-0.9356 -1.2124,-1.4908 -2.1480 -1.2401Z"/></g><g stroke="rgb(0,0,0)" fill="rgb(222,184,135)" stroke-miterlimit="10.0" stroke-linecap="butt" stroke-linejoin="miter" stroke-opacity="1.0" stroke-width="0.724684482634128" fill-opacity="1.0"><path d="M 133.1524,48.9394 l -10.5879,2.8370 l 1.1348,4.2352 l 10.5879,-2.8370 Z"/></g><g stroke="rgb(0,0,0)" fill="rgb(205,133,63)" stroke-miterlimit="10.0" stroke-linecap="butt" stroke-linejoin="miter" stroke-opacity="1.0" stroke-width="0.724684482634128" fill-opacity="1.0"><path d="M 149.2612,45.5309 l -16.9407,4.5392 l 0.6809,2.5411 l 16.9407,-4.5392 Z"/></g><g stroke="rgb(0,0,0)" fill="rgb(211,211,211)" stroke-miterlimit="10.0" stroke-linecap="butt" stroke-linejoin="miter" stroke-opacity="1.0" stroke-width="0.724684482634128" fill-opacity="1.0"><path d="M 97.3937,105.8330 l -0.1940,-10.0444 l -6.0609,8.0121 Z"/></g><g stroke="rgb(0,0,0)" fill="rgb(211,211,211)" stroke-miterlimit="10.0" stroke-linecap="butt" stroke-linejoin="miter" stroke-opacity="1.0" stroke-width="0.724684482634128" fill-opacity="1.0"><path d="M 63.2193,103.8007 l -6.0609,-8.0121 l -0.1940,10.0444 Z"/></g><g stroke="rgb(255,192,203)" stroke-dashoffset="0.0" fill="rgb(211,211,211)" stroke-miterlimit="10.0" stroke-dasharray="4.384564732876309,1.0961411832190773" stroke-linecap="butt" stroke-linejoin="miter" stroke-opacity="1.0" stroke-width="1.81171120658532" fill-opacity="1.0"><path d="M 99.1018,114.8396 c 0.0000,-12.1076 -9.8152,-21.9228 -21.9228 -21.9228c -12.1076,-0.0000 -21.9228,9.8152 -21.9228 21.9228c -0.0000,12.1076 9.8152,21.9228 21.9228 21.9228c 12.1076,0.0000 21.9228,-9.8152 21.9228 -21.9228Z"/></g><g stroke="rgb(0,0,0)" fill="rgb(0,0,0)" stroke-miterlimit="10.0" stroke-linecap="butt" stroke-linejoin="miter" stroke-opacity="1.0" stroke-width="0.5" fill-opacity="0.0"><path d="M 92.5250,119.2241 h 13.1537 "/></g><g stroke="rgb(0,0,0)" fill="rgb(0,0,0)" stroke-miterlimit="10.0" stroke-linecap="butt" stroke-linejoin="miter" stroke-opacity="1.0" stroke-width="0.5" fill-opacity="0.0"><path d="M 48.6793,119.2241 h 13.1537 "/></g><g stroke="rgb(0,0,0)" fill="rgb(0,0,0)" stroke-miterlimit="10.0" stroke-linecap="butt" stroke-linejoin="miter" stroke-opacity="1.0" stroke-width="0.5" fill-opacity="0.0"><path d="M 92.5250,117.0319 h 13.1537 "/></g><g stroke="rgb(0,0,0)" fill="rgb(0,0,0)" stroke-miterlimit="10.0" stroke-linecap="butt" stroke-linejoin="miter" stroke-opacity="1.0" stroke-width="0.5" fill-opacity="0.0"><path d="M 48.6793,117.0319 h 13.1537 "/></g><g stroke="rgb(0,0,0)" fill="rgb(0,0,0)" stroke-miterlimit="10.0" stroke-linecap="butt" stroke-linejoin="miter" stroke-opacity="1.0" stroke-width="0.5" fill-opacity="0.0"><path d="M 92.5250,114.8396 h 13.1537 "/></g><g stroke="rgb(0,0,0)" fill="rgb(0,0,0)" stroke-miterlimit="10.0" stroke-linecap="butt" stroke-linejoin="miter" stroke-opacity="1.0" stroke-width="0.5" fill-opacity="0.0"><path d="M 48.6793,114.8396 h 13.1537 "/></g><g stroke="rgb(0,0,0)" fill="rgb(0,0,0)" stroke-miterlimit="10.0" stroke-linecap="butt" stroke-linejoin="miter" stroke-opacity="1.0" stroke-width="0.5" fill-opacity="0.0"><path d="M 72.7944,123.6087 h 8.7691 "/></g><g stroke="rgb(0,0,0)" fill="rgb(0,0,0)" stroke-miterlimit="10.0" stroke-linecap="butt" stroke-linejoin="miter" stroke-opacity="1.0" stroke-width="0.5" fill-opacity="0.0"><path d="M 77.1790,114.8396 v 8.7691 "/></g><g stroke="rgb(0,0,0)" fill="rgb(255,192,203)" stroke-miterlimit="10.0" stroke-linecap="butt" stroke-linejoin="miter" stroke-opacity="1.0" stroke-width="0.724684482634128" fill-opacity="1.0"><path d="M 74.3290,113.1941 l 2.8500,4.9363 l 2.8500,-4.9363 Z"/></g><g stroke="rgb(0,0,0)" fill="rgb(0,0,0)" stroke-miterlimit="10.0" stroke-linecap="butt" stroke-linejoin="miter" stroke-opacity="1.0" stroke-width="0.724684482634128" fill-opacity="1.0"><path d="M 88.7981,109.3589 c 0.0000,-1.5740 -1.2760,-2.8500 -2.8500 -2.8500c -1.5740,-0.0000 -2.8500,1.2760 -2.8500 2.8500c -0.0000,1.5740 1.2760,2.8500 2.8500 2.8500c 1.5740,0.0000 2.8500,-1.2760 2.8500 -2.8500Z"/></g><g stroke="rgb(0,0,0)" fill="rgb(0,0,0)" stroke-miterlimit="10.0" stroke-linecap="butt" stroke-linejoin="miter" stroke-opacity="1.0" stroke-width="0.724684482634128" fill-opacity="1.0"><path d="M 71.2598,109.3589 c 0.0000,-1.5740 -1.2760,-2.8500 -2.8500 -2.8500c -1.5740,-0.0000 -2.8500,1.2760 -2.8500 2.8500c -0.0000,1.5740 1.2760,2.8500 2.8500 2.8500c 1.5740,0.0000 2.8500,-1.2760 2.8500 -2.8500Z"/></g><g stroke="rgb(0,0,0)" fill="rgb(0,0,0)" stroke-miterlimit="10.0" stroke-linecap="butt" stroke-linejoin="miter" stroke-opacity="1.0" stroke-width="0.724684482634128" fill-opacity="1.0"><path d="M 71.2598,109.3589 c 0.0000,-1.5740 -1.2760,-2.8500 -2.8500 -2.8500c -1.5740,-0.0000 -2.8500,1.2760 -2.8500 2.8500c -0.0000,1.5740 1.2760,2.8500 2.8500 2.8500c 1.5740,0.0000 2.8500,-1.2760 2.8500 -2.8500Z"/></g><g stroke="rgb(0,0,0)" fill="rgb(0,0,0)" stroke-miterlimit="10.0" stroke-linecap="butt" stroke-linejoin="miter" stroke-opacity="1.0" stroke-width="5.0e-2" fill-opacity="0.0"><path d="M 102.3902,97.3013 v 5.4807 "/></g><g stroke="rgb(0,0,0)" fill="rgb(0,0,0)" stroke-miterlimit="10.0" stroke-linecap="butt" stroke-linejoin="miter" stroke-opacity="1.0" stroke-width="0.1" fill-opacity="0.0"><path d="M 102.3902,102.7820 h -4.3846 "/></g><g stroke="rgb(0,0,0)" fill="rgb(0,0,0)" stroke-miterlimit="10.0" stroke-linecap="butt" stroke-linejoin="miter" stroke-opacity="1.0" stroke-width="0.1" fill-opacity="0.0"><path d="M 102.3902,102.7820 h 4.3846 "/></g><g stroke="rgb(0,0,0)" fill="rgb(0,0,0)" stroke-miterlimit="10.0" stroke-linecap="butt" stroke-linejoin="miter" stroke-opacity="1.0" stroke-width="0.1" fill-opacity="0.0"><path d="M 101.2941,102.7820 l -2.1923,-3.2884 "/></g><g stroke="rgb(0,0,0)" fill="rgb(0,0,0)" stroke-miterlimit="10.0" stroke-linecap="butt" stroke-linejoin="miter" stroke-opacity="1.0" stroke-width="0.1" fill-opacity="0.0"><path d="M 101.2941,102.7820 l -2.1923,-3.2884 "/></g><g stroke="rgb(0,0,0)" fill="rgb(0,0,0)" stroke-miterlimit="10.0" stroke-linecap="butt" stroke-linejoin="miter" stroke-opacity="1.0" stroke-width="0.1" fill-opacity="0.0"><path d="M 103.4864,102.7820 l 2.1923,3.2884 "/></g><g stroke="rgb(0,0,0)" fill="rgb(0,0,0)" stroke-miterlimit="10.0" stroke-linecap="butt" stroke-linejoin="miter" stroke-opacity="1.0" stroke-width="0.1" fill-opacity="0.0"><path d="M 101.2941,102.7820 l -2.1923,3.2884 "/></g><g stroke="rgb(0,0,0)" fill="rgb(0,0,0)" stroke-miterlimit="10.0" stroke-linecap="butt" stroke-linejoin="miter" stroke-opacity="1.0" stroke-width="0.0" fill-opacity="1.0"><path d="M 104.0344,102.7820 c 0.0000,-0.9081 -0.7361,-1.6442 -1.6442 -1.6442c -0.9081,-0.0000 -1.6442,0.7361 -1.6442 1.6442c -0.0000,0.9081 0.7361,1.6442 1.6442 1.6442c 0.9081,0.0000 1.6442,-0.7361 1.6442 -1.6442Z"/></g><g stroke="rgb(0,0,0)" fill="rgb(128,0,128)" stroke-miterlimit="10.0" stroke-linecap="butt" stroke-linejoin="miter" stroke-opacity="1.0" stroke-width="0.5" fill-opacity="1.0"><path d="M 77.1790,42.4943 l -21.9228,43.8456 h 43.8456 Z"/></g><g stroke="rgb(0,0,0)" fill="rgb(255,255,0)" stroke-miterlimit="10.0" stroke-linecap="butt" stroke-linejoin="miter" stroke-opacity="1.0" stroke-width="0.5" fill-opacity="1.0"><path d="M 107.7468,91.8206 l -4.7464,-2.7404 v 5.4807 Z"/></g><g stroke="rgb(0,0,0)" fill="rgb(255,255,0)" stroke-miterlimit="10.0" stroke-linecap="butt" stroke-linejoin="miter" stroke-opacity="1.0" stroke-width="0.5" fill-opacity="1.0"><path d="M 96.7854,91.8206 l -4.7464,-2.7404 v 5.4807 Z"/></g><g stroke="rgb(0,0,0)" fill="rgb(255,255,0)" stroke-miterlimit="10.0" stroke-linecap="butt" stroke-linejoin="miter" stroke-opacity="1.0" stroke-width="0.5" fill-opacity="1.0"><path d="M 85.8240,91.8206 l -4.7464,-2.7404 v 5.4807 Z"/></g><g stroke="rgb(0,0,0)" fill="rgb(255,255,0)" stroke-miterlimit="10.0" stroke-linecap="butt" stroke-linejoin="miter" stroke-opacity="1.0" stroke-width="0.5" fill-opacity="1.0"><path d="M 74.8626,91.8206 l -4.7464,-2.7404 v 5.4807 Z"/></g><g stroke="rgb(0,0,0)" fill="rgb(255,255,0)" stroke-miterlimit="10.0" stroke-linecap="butt" stroke-linejoin="miter" stroke-opacity="1.0" stroke-width="0.5" fill-opacity="1.0"><path d="M 63.9011,91.8206 l -4.7464,-2.7404 v 5.4807 Z"/></g><g stroke="rgb(0,0,0)" fill="rgb(255,255,0)" stroke-miterlimit="10.0" stroke-linecap="butt" stroke-linejoin="miter" stroke-opacity="1.0" stroke-width="0.5" fill-opacity="1.0"><path d="M 52.9397,91.8206 l -4.7464,-2.7404 v 5.4807 Z"/></g><g stroke="rgb(0,0,0)" fill="rgb(0,0,0)" stroke-miterlimit="10.0" stroke-linecap="butt" stroke-linejoin="miter" stroke-opacity="1.0" stroke-width="0.0" fill-opacity="1.0"><path d="M 110.0632,91.8206 h 0.0000 c 0.0000,-3.0269 -2.4538,-5.4807 -5.4807 -5.4807h -54.8071 c -3.0269,-0.0000 -5.4807,2.4538 -5.4807 5.4807h 0.0000 c -0.0000,3.0269 2.4538,5.4807 5.4807 5.4807h 54.8071 c 3.0269,0.0000 5.4807,-2.4538 5.4807 -5.4807Z"/></g><g stroke="rgb(0,0,0)" fill="rgb(0,0,0)" stroke-miterlimit="10.0" stroke-linecap="butt" stroke-linejoin="miter" stroke-opacity="1.0" stroke-width="0.0" fill-opacity="1.0"><path d="M 95.2653,77.0227 l -0.0000,-3.2884 h -36.1727 l -0.0000,3.2884 Z"/></g><g stroke="rgb(0,0,0)" fill="rgb(255,165,0)" stroke-miterlimit="10.0" stroke-linecap="butt" stroke-linejoin="miter" stroke-opacity="1.0" stroke-width="0.0" fill-opacity="1.0"><path d="M 80.4674,76.4746 v -2.1923 c 0.0000,-0.6054 -0.4908,-1.0961 -1.0961 -1.0961h -4.3846 c -0.6054,-0.0000 -1.0961,0.4908 -1.0961 1.0961v 2.1923 c -0.0000,0.6054 0.4908,1.0961 1.0961 1.0961h 4.3846 c 0.6054,0.0000 1.0961,-0.4908 1.0961 -1.0961Z"/></g><g stroke="rgb(0,0,0)" fill="rgb(0,0,0)" stroke-miterlimit="10.0" stroke-linecap="butt" stroke-linejoin="miter" stroke-opacity="1.0" stroke-width="0.0" fill-opacity="1.0"><path d="M 79.3713,75.3785 h 0.0000 c 0.0000,-0.6054 -0.4908,-1.0961 -1.0961 -1.0961h -2.1923 c -0.6054,-0.0000 -1.0961,0.4908 -1.0961 1.0961h 0.0000 c -0.0000,0.6054 0.4908,1.0961 1.0961 1.0961h 2.1923 c 0.6054,0.0000 1.0961,-0.4908 1.0961 -1.0961Z"/></g></svg>