<?xml version="1.0" encoding="UTF-8"?>
<!DOCTYPE svg PUBLIC "-//W3C//DTD SVG 1.1//EN"
    "http://www.w3.org/Graphics/SVG/1.1/DTD/svg11.dtd"><svg font-size="1" stroke="rgb(0,0,0)" width="200.0000" xmlns="http://www.w3.org/2000/svg" viewBox="0.0 0.0 200.00000000000003 146.57053644364626" xmlns:xlink="http://www.w3.org/1999/xlink" version="1.1" stroke-opacity="1" height="146.5705"><defs></defs><g opacity="0.5" stroke="rgb(0,0,0)" fill="rgb(173,216,230)" stroke-miterlimit="10.0" stroke-linecap="butt" stroke-linejoin="miter" stroke-opacity="1.0" stroke-width="1.0178509475253212" fill-opacity="1.0"><path d="M 83.7144,99.7494 c -17.2735,-17.2735 -14.3946,-28.7892 7.1973 -21.5919Z"/></g><g opacity="0.5" stroke="rgb(0,0,0)" fill="rgb(173,216,230)" stroke-miterlimit="10.0" stroke-linecap="butt" stroke-linejoin="miter" stroke-opacity="1.0" stroke-width="1.0178509475253212" fill-opacity="1.0"><path d="M 83.7144,99.7494 c -50.3811,-21.5919 -50.3811,-35.9865 -14.3946 -43.1838Z"/></g><g opacity="0.5" stroke="rgb(0,0,0)" fill="rgb(173,216,230)" stroke-miterlimit="10.0" stroke-linecap="butt" stroke-linejoin="miter" stroke-opacity="1.0" stroke-width="1.0178509475253212" fill-opacity="1.0"><path d="M 83.7144,99.7494 c -28.7892,14.3946 -10.0762,4.3184 -17.2735 -17.2735Z"/></g><g opacity="1.0" stroke="rgb(0,0,0)" fill="rgb(173,216,230)" stroke-miterlimit="10.0" stroke-linecap="butt" stroke-linejoin="miter" stroke-opacity="1.0" stroke-width="1.0178509475253212" fill-opacity="1.0"><path d="M 83.7144,99.7494 c -28.7892,14.3946 -50.3811,7.1973 -50.3811 -21.5919Z"/></g><g opacity="0.5" stroke="rgb(0,0,0)" fill="rgb(173,216,230)" stroke-miterlimit="10.0" stroke-linecap="butt" stroke-linejoin="miter" stroke-opacity="1.0" stroke-width="1.0178509475253212" fill-opacity="1.0"><path d="M 116.2856,99.7494 c 17.2735,-17.2735 14.3946,-28.7892 -7.1973 -21.5919Z"/></g><g opacity="0.5" stroke="rgb(0,0,0)" fill="rgb(173,216,230)" stroke-miterlimit="10.0" stroke-linecap="butt" stroke-linejoin="miter" stroke-opacity="1.0" stroke-width="1.0178509475253212" fill-opacity="1.0"><path d="M 116.2856,99.7494 c 50.3811,-21.5919 50.3811,-35.9865 14.3946 -43.1838Z"/></g><g opacity="0.5" stroke="rgb(0,0,0)" fill="rgb(173,216,230)" stroke-miterlimit="10.0" stroke-linecap="butt" stroke-linejoin="miter" stroke-opacity="1.0" stroke-width="1.0178509475253212" fill-opacity="1.0"><path d="M 116.2856,99.7494 c 28.7892,14.3946 10.0762,4.3184 17.2735 -17.2735Z"/></g><g opacity="1.0" stroke="rgb(0,0,0)" fill="rgb(173,216,230)" stroke-miterlimit="10.0" stroke-linecap="butt" stroke-linejoin="miter" stroke-opacity="1.0" stroke-width="1.0178509475253212" fill-opacity="1.0"><path d="M 116.2856,99.7494 c 28.7892,14.3946 50.3811,7.1973 50.3811 -21.5919Z"/></g><g stroke="rgb(0,0,0)" fill="rgb(211,211,211)" stroke-miterlimit="10.0" stroke-linecap="butt" stroke-linejoin="miter" stroke-opacity="1.0" stroke-width="0.6848545222305742" fill-opacity="1.0"><path d="M 118.7709,93.4218 l -0.1802,-9.3270 l -5.6280,7.4398 Z"/></g><g stroke="rgb(0,0,0)" fill="rgb(211,211,211)" stroke-miterlimit="10.0" stroke-linecap="butt" stroke-linejoin="miter" stroke-opacity="1.0" stroke-width="0.6848545222305742" fill-opacity="1.0"><path d="M 87.0373,91.5346 l -5.6280,-7.4398 l -0.1802,9.3270 Z"/></g><g stroke="rgb(255,192,203)" stroke-dashoffset="0.0" fill="rgb(211,211,211)" stroke-miterlimit="10.0" stroke-dasharray="4.071403790101285,1.0178509475253212" stroke-linecap="butt" stroke-linejoin="miter" stroke-opacity="1.0" stroke-width="1.7121363055764354" fill-opacity="1.0"><path d="M 120.3570,101.7851 c 0.0000,-11.2429 -9.1141,-20.3570 -20.3570 -20.3570c -11.2429,-0.0000 -20.3570,9.1141 -20.3570 20.3570c -0.0000,11.2429 9.1141,20.3570 20.3570 20.3570c 11.2429,0.0000 20.3570,-9.1141 20.3570 -20.3570Z"/></g><g stroke="rgb(0,0,0)" fill="rgb(0,0,0)" stroke-miterlimit="10.0" stroke-linecap="butt" stroke-linejoin="miter" stroke-opacity="1.0" stroke-width="0.5" fill-opacity="0.0"><path d="M 114.2499,105.8565 h 12.2142 "/></g><g stroke="rgb(0,0,0)" fill="rgb(0,0,0)" stroke-miterlimit="10.0" stroke-linecap="butt" stroke-linejoin="miter" stroke-opacity="1.0" stroke-width="0.5" fill-opacity="0.0"><path d="M 73.5359,105.8565 h 12.2142 "/></g><g stroke="rgb(0,0,0)" fill="rgb(0,0,0)" stroke-miterlimit="10.0" stroke-linecap="butt" stroke-linejoin="miter" stroke-opacity="1.0" stroke-width="0.5" fill-opacity="0.0"><path d="M 114.2499,103.8208 h 12.2142 "/></g><g stroke="rgb(0,0,0)" fill="rgb(0,0,0)" stroke-miterlimit="10.0" stroke-linecap="butt" stroke-linejoin="miter" stroke-opacity="1.0" stroke-width="0.5" fill-opacity="0.0"><path d="M 73.5359,103.8208 h 12.2142 "/></g><g stroke="rgb(0,0,0)" fill="rgb(0,0,0)" stroke-miterlimit="10.0" stroke-linecap="butt" stroke-linejoin="miter" stroke-opacity="1.0" stroke-width="0.5" fill-opacity="0.0"><path d="M 114.2499,101.7851 h 12.2142 "/></g><g stroke="rgb(0,0,0)" fill="rgb(0,0,0)" stroke-miterlimit="10.0" stroke-linecap="butt" stroke-linejoin="miter" stroke-opacity="1.0" stroke-width="0.5" fill-opacity="0.0"><path d="M 73.5359,101.7851 h 12.2142 "/></g><g stroke="rgb(0,0,0)" fill="rgb(0,0,0)" stroke-miterlimit="10.0" stroke-linecap="butt" stroke-linejoin="miter" stroke-opacity="1.0" stroke-width="0.5" fill-opacity="0.0"><path d="M 95.9286,109.9279 h 8.1428 "/></g><g stroke="rgb(0,0,0)" fill="rgb(0,0,0)" stroke-miterlimit="10.0" stroke-linecap="butt" stroke-linejoin="miter" stroke-opacity="1.0" stroke-width="0.5" fill-opacity="0.0"><path d="M 100.0000,101.7851 v 8.1428 "/></g><g stroke="rgb(0,0,0)" fill="rgb(255,192,203)" stroke-miterlimit="10.0" stroke-linecap="butt" stroke-linejoin="miter" stroke-opacity="1.0" stroke-width="0.6848545222305742" fill-opacity="1.0"><path d="M 97.3536,100.2572 l 2.6464,4.5837 l 2.6464,-4.5837 Z"/></g><g stroke="rgb(0,0,0)" fill="rgb(0,0,255)" stroke-miterlimit="10.0" stroke-linecap="butt" stroke-linejoin="miter" stroke-opacity="1.0" stroke-width="0.6848545222305742" fill-opacity="1.0"><path d="M 110.7892,96.6958 c 0.0000,-1.4616 -1.1848,-2.6464 -2.6464 -2.6464c -1.4616,-0.0000 -2.6464,1.1848 -2.6464 2.6464c -0.0000,1.4616 1.1848,2.6464 2.6464 2.6464c 1.4616,0.0000 2.6464,-1.1848 2.6464 -2.6464Z"/></g><g stroke="rgb(0,0,0)" fill="rgb(255,0,0)" stroke-miterlimit="10.0" stroke-linecap="butt" stroke-linejoin="miter" stroke-opacity="1.0" stroke-width="0.6848545222305742" fill-opacity="1.0"><path d="M 94.5036,96.6958 c 0.0000,-1.4616 -1.1848,-2.6464 -2.6464 -2.6464c -1.4616,-0.0000 -2.6464,1.1848 -2.6464 2.6464c -0.0000,1.4616 1.1848,2.6464 2.6464 2.6464c 1.4616,0.0000 2.6464,-1.1848 2.6464 -2.6464Z"/></g><g stroke="rgb(0,0,0)" fill="rgb(255,0,0)" stroke-miterlimit="10.0" stroke-linecap="butt" stroke-linejoin="miter" stroke-opacity="1.0" stroke-width="0.6848545222305742" fill-opacity="1.0"><path d="M 94.5036,96.6958 c 0.0000,-1.4616 -1.1848,-2.6464 -2.6464 -2.6464c -1.4616,-0.0000 -2.6464,1.1848 -2.6464 2.6464c -0.0000,1.4616 1.1848,2.6464 2.6464 2.6464c 1.4616,0.0000 2.6464,-1.1848 2.6464 -2.6464Z"/></g><g stroke="rgb(0,0,0)" fill="rgb(0,0,0)" stroke-miterlimit="10.0" stroke-linecap="butt" stroke-linejoin="miter" stroke-opacity="1.0" stroke-width="5.0e-2" fill-opacity="0.0"><path d="M 123.4106,85.4995 v 5.0893 "/></g><g stroke="rgb(0,0,0)" fill="rgb(0,0,0)" stroke-miterlimit="10.0" stroke-linecap="butt" stroke-linejoin="miter" stroke-opacity="1.0" stroke-width="0.1" fill-opacity="0.0"><path d="M 123.4106,90.5887 h -4.0714 "/></g><g stroke="rgb(0,0,0)" fill="rgb(0,0,0)" stroke-miterlimit="10.0" stroke-linecap="butt" stroke-linejoin="miter" stroke-opacity="1.0" stroke-width="0.1" fill-opacity="0.0"><path d="M 123.4106,90.5887 h 4.0714 "/></g><g stroke="rgb(0,0,0)" fill="rgb(0,0,0)" stroke-miterlimit="10.0" stroke-linecap="butt" stroke-linejoin="miter" stroke-opacity="1.0" stroke-width="0.1" fill-opacity="0.0"><path d="M 122.3927,90.5887 l -2.0357,-3.0536 "/></g><g stroke="rgb(0,0,0)" fill="rgb(0,0,0)" stroke-miterlimit="10.0" stroke-linecap="butt" stroke-linejoin="miter" stroke-opacity="1.0" stroke-width="0.1" fill-opacity="0.0"><path d="M 122.3927,90.5887 l -2.0357,-3.0536 "/></g><g stroke="rgb(0,0,0)" fill="rgb(0,0,0)" stroke-miterlimit="10.0" stroke-linecap="butt" stroke-linejoin="miter" stroke-opacity="1.0" stroke-width="0.1" fill-opacity="0.0"><path d="M 124.4284,90.5887 l 2.0357,3.0536 "/></g><g stroke="rgb(0,0,0)" fill="rgb(0,0,0)" stroke-miterlimit="10.0" stroke-linecap="butt" stroke-linejoin="miter" stroke-opacity="1.0" stroke-width="0.1" fill-opacity="0.0"><path d="M 122.3927,90.5887 l -2.0357,3.0536 "/></g><g stroke="rgb(0,0,0)" fill="rgb(0,0,0)" stroke-miterlimit="10.0" stroke-linecap="butt" stroke-linejoin="miter" stroke-opacity="1.0" stroke-width="0.0" fill-opacity="1.0"><path d="M 124.9373,90.5887 c 0.0000,-0.8432 -0.6836,-1.5268 -1.5268 -1.5268c -0.8432,-0.0000 -1.5268,0.6836 -1.5268 1.5268c -0.0000,0.8432 0.6836,1.5268 1.5268 1.5268c 0.8432,0.0000 1.5268,-0.6836 1.5268 -1.5268Z"/></g><g stroke="rgb(0,0,0)" fill="rgb(128,0,128)" stroke-miterlimit="10.0" stroke-linecap="butt" stroke-linejoin="miter" stroke-opacity="1.0" stroke-width="0.5" fill-opacity="1.0"><path d="M 100.0000,34.6069 l -20.3570,40.7140 h 40.7140 Z"/></g><g stroke="rgb(0,0,0)" fill="rgb(255,255,0)" stroke-miterlimit="10.0" stroke-linecap="butt" stroke-linejoin="miter" stroke-opacity="1.0" stroke-width="0.5" fill-opacity="1.0"><path d="M 128.3846,80.4102 l -4.4074,-2.5446 v 5.0893 Z"/></g><g stroke="rgb(0,0,0)" fill="rgb(255,255,0)" stroke-miterlimit="10.0" stroke-linecap="butt" stroke-linejoin="miter" stroke-opacity="1.0" stroke-width="0.5" fill-opacity="1.0"><path d="M 118.2060,80.4102 l -4.4074,-2.5446 v 5.0893 Z"/></g><g stroke="rgb(0,0,0)" fill="rgb(255,255,0)" stroke-miterlimit="10.0" stroke-linecap="butt" stroke-linejoin="miter" stroke-opacity="1.0" stroke-width="0.5" fill-opacity="1.0"><path d="M 108.0275,80.4102 l -4.4074,-2.5446 v 5.0893 Z"/></g><g stroke="rgb(0,0,0)" fill="rgb(255,255,0)" stroke-miterlimit="10.0" stroke-linecap="butt" stroke-linejoin="miter" stroke-opacity="1.0" stroke-width="0.5" fill-opacity="1.0"><path d="M 97.8490,80.4102 l -4.4074,-2.5446 v 5.0893 Z"/></g><g stroke="rgb(0,0,0)" fill="rgb(255,255,0)" stroke-miterlimit="10.0" stroke-linecap="butt" stroke-linejoin="miter" stroke-opacity="1.0" stroke-width="0.5" fill-opacity="1.0"><path d="M 87.6705,80.4102 l -4.4074,-2.5446 v 5.0893 Z"/></g><g stroke="rgb(0,0,0)" fill="rgb(255,255,0)" stroke-miterlimit="10.0" stroke-linecap="butt" stroke-linejoin="miter" stroke-opacity="1.0" stroke-width="0.5" fill-opacity="1.0"><path d="M 77.4920,80.4102 l -4.4074,-2.5446 v 5.0893 Z"/></g><g stroke="rgb(0,0,0)" fill="rgb(0,0,0)" stroke-miterlimit="10.0" stroke-linecap="butt" stroke-linejoin="miter" stroke-opacity="1.0" stroke-width="0.0" fill-opacity="1.0"><path d="M 130.5355,80.4102 h 0.0000 c 0.0000,-2.8107 -2.2785,-5.0893 -5.0893 -5.0893h -50.8925 c -2.8107,-0.0000 -5.0893,2.2785 -5.0893 5.0893h 0.0000 c -0.0000,2.8107 2.2785,5.0893 5.0893 5.0893h 50.8925 c 2.8107,0.0000 5.0893,-2.2785 5.0893 -5.0893Z"/></g><g stroke="rgb(0,0,0)" fill="rgb(0,0,0)" stroke-miterlimit="10.0" stroke-linecap="butt" stroke-linejoin="miter" stroke-opacity="1.0" stroke-width="0.0" fill-opacity="1.0"><path d="M 116.7945,66.6692 l -0.0000,-3.0536 h -33.5891 l -0.0000,3.0536 Z"/></g><g stroke="rgb(0,0,0)" fill="rgb(255,165,0)" stroke-miterlimit="10.0" stroke-linecap="butt" stroke-linejoin="miter" stroke-opacity="1.0" stroke-width="0.0" fill-opacity="1.0"><path d="M 103.0536,66.1603 v -2.0357 c 0.0000,-0.5621 -0.4557,-1.0179 -1.0179 -1.0179h -4.0714 c -0.5621,-0.0000 -1.0179,0.4557 -1.0179 1.0179v 2.0357 c -0.0000,0.5621 0.4557,1.0179 1.0179 1.0179h 4.0714 c 0.5621,0.0000 1.0179,-0.4557 1.0179 -1.0179Z"/></g><g stroke="rgb(0,0,0)" fill="rgb(0,0,0)" stroke-miterlimit="10.0" stroke-linecap="butt" stroke-linejoin="miter" stroke-opacity="1.0" stroke-width="0.0" fill-opacity="1.0"><path d="M 102.0357,65.1425 h 0.0000 c 0.0000,-0.5621 -0.4557,-1.0179 -1.0179 -1.0179h -2.0357 c -0.5621,-0.0000 -1.0179,0.4557 -1.0179 1.0179h 0.0000 c -0.0000,0.5621 0.4557,1.0179 1.0179 1.0179h 2.0357 c 0.5621,0.0000 1.0179,-0.4557 1.0179 -1.0179Z"/></g></svg>