<?xml version="1.0" encoding="UTF-8"?>
<!DOCTYPE svg PUBLIC "-//W3C//DTD SVG 1.1//EN"
    "http://www.w3.org/Graphics/SVG/1.1/DTD/svg11.dtd"><svg font-size="1" stroke="rgb(0,0,0)" width="200.0000" xmlns="http://www.w3.org/2000/svg" viewBox="0.0 0.0 200.0 139.19922013382188" xmlns:xlink="http://www.w3.org/1999/xlink" version="1.1" stroke-opacity="1" height="139.1992"><defs></defs><g stroke="rgb(0,0,0)" fill="rgb(0,0,0)" stroke-miterlimit="10.0" stroke-linecap="butt" stroke-linejoin="miter" stroke-opacity="1.0" stroke-width="0.6674110460789737" fill-opacity="1.0"><path d="M 85.9266,70.0823 l 5.3883,1.4438 l -1.4438,-5.3883 Z"/></g><g stroke="rgb(0,0,0)" fill="rgb(255,255,255)" stroke-miterlimit="10.0" stroke-linecap="butt" stroke-linejoin="miter" stroke-opacity="1.0" stroke-width="0.6674110460789737" fill-opacity="1.0"><path d="M 74.5744,67.9339 c -0.7262,0.7262 -0.7262,1.9035 -0.0000 2.6297c 0.7262,0.7262 1.9035,0.7262 2.6297 0.0000c 0.7262,-0.7262 0.7262,-1.9035 0.0000 -2.6297c -0.7262,-0.7262 -1.9035,-0.7262 -2.6297 -0.0000Z"/></g><g stroke="rgb(0,0,0)" fill="rgb(0,0,0)" stroke-miterlimit="10.0" stroke-linecap="butt" stroke-linejoin="miter" stroke-opacity="1.0" stroke-width="1.8594536058172508" fill-opacity="0.0"><path d="M 75.8892,69.2487 l 13.1483,-0.0000 "/></g><g stroke="rgb(0,0,0)" fill="rgb(0,0,0)" stroke-miterlimit="10.0" stroke-linecap="butt" stroke-linejoin="miter" stroke-opacity="1.0" stroke-width="0.6674110460789737" fill-opacity="1.0"><path d="M 72.7783,70.0823 l 5.3883,1.4438 l -1.4438,-5.3883 Z"/></g><g stroke="rgb(0,0,0)" fill="rgb(255,255,255)" stroke-miterlimit="10.0" stroke-linecap="butt" stroke-linejoin="miter" stroke-opacity="1.0" stroke-width="0.6674110460789737" fill-opacity="1.0"><path d="M 58.1390,64.6468 c -0.7262,0.7262 -0.7262,1.9035 -0.0000 2.6297c 0.7262,0.7262 1.9035,0.7262 2.6297 0.0000c 0.7262,-0.7262 0.7262,-1.9035 0.0000 -2.6297c -0.7262,-0.7262 -1.9035,-0.7262 -2.6297 -0.0000Z"/></g><g stroke="rgb(0,0,0)" fill="rgb(0,0,0)" stroke-miterlimit="10.0" stroke-linecap="butt" stroke-linejoin="miter" stroke-opacity="1.0" stroke-width="1.8594536058172508" fill-opacity="0.0"><path d="M 59.4538,65.9616 l 16.4354,3.2871 "/></g><g stroke="rgb(0,0,0)" fill="rgb(0,0,0)" stroke-miterlimit="10.0" stroke-linecap="butt" stroke-linejoin="miter" stroke-opacity="1.0" stroke-width="0.6674110460789737" fill-opacity="1.0"><path d="M 56.3429,66.7952 l 5.3883,1.4438 l -1.4438,-5.3883 Z"/></g><g stroke="rgb(0,0,0)" fill="rgb(255,255,255)" stroke-miterlimit="10.0" stroke-linecap="butt" stroke-linejoin="miter" stroke-opacity="1.0" stroke-width="0.6674110460789737" fill-opacity="1.0"><path d="M 35.1294,67.9339 c -0.7262,0.7262 -0.7262,1.9035 -0.0000 2.6297c 0.7262,0.7262 1.9035,0.7262 2.6297 0.0000c 0.7262,-0.7262 0.7262,-1.9035 0.0000 -2.6297c -0.7262,-0.7262 -1.9035,-0.7262 -2.6297 -0.0000Z"/></g><g stroke="rgb(0,0,0)" fill="rgb(0,0,0)" stroke-miterlimit="10.0" stroke-linecap="butt" stroke-linejoin="miter" stroke-opacity="1.0" stroke-width="1.8594536058172508" fill-opacity="0.0"><path d="M 36.4443,69.2487 l 23.0096,-3.2871 "/></g><g stroke="rgb(0,0,0)" fill="rgb(0,0,0)" stroke-miterlimit="10.0" stroke-linecap="butt" stroke-linejoin="miter" stroke-opacity="1.0" stroke-width="0.6674110460789737" fill-opacity="1.0"><path d="M 33.3333,70.0823 l 5.3883,1.4438 l -1.4438,-5.3883 Z"/></g><g stroke="rgb(0,0,0)" fill="rgb(255,255,255)" stroke-miterlimit="10.0" stroke-linecap="butt" stroke-linejoin="miter" stroke-opacity="1.0" stroke-width="0.6674110460789737" fill-opacity="1.0"><path d="M 41.7036,87.6564 c -0.7262,0.7262 -0.7262,1.9035 -0.0000 2.6297c 0.7262,0.7262 1.9035,0.7262 2.6297 0.0000c 0.7262,-0.7262 0.7262,-1.9035 0.0000 -2.6297c -0.7262,-0.7262 -1.9035,-0.7262 -2.6297 -0.0000Z"/></g><g stroke="rgb(0,0,0)" fill="rgb(0,0,0)" stroke-miterlimit="10.0" stroke-linecap="butt" stroke-linejoin="miter" stroke-opacity="1.0" stroke-width="1.8594536058172508" fill-opacity="0.0"><path d="M 43.0184,88.9712 l -6.5742,-19.7225 "/></g><g stroke="rgb(0,0,0)" fill="rgb(0,0,0)" stroke-miterlimit="10.0" stroke-linecap="butt" stroke-linejoin="miter" stroke-opacity="1.0" stroke-width="0.6674110460789737" fill-opacity="1.0"><path d="M 39.9075,89.8048 l 5.3883,1.4438 l -1.4438,-5.3883 Z"/></g><g stroke="rgb(0,0,0)" fill="rgb(255,255,255)" stroke-miterlimit="10.0" stroke-linecap="butt" stroke-linejoin="miter" stroke-opacity="1.0" stroke-width="0.6674110460789737" fill-opacity="1.0"><path d="M 74.5744,94.2305 c -0.7262,0.7262 -0.7262,1.9035 -0.0000 2.6297c 0.7262,0.7262 1.9035,0.7262 2.6297 0.0000c 0.7262,-0.7262 0.7262,-1.9035 0.0000 -2.6297c -0.7262,-0.7262 -1.9035,-0.7262 -2.6297 -0.0000Z"/></g><g stroke="rgb(0,0,0)" fill="rgb(0,0,0)" stroke-miterlimit="10.0" stroke-linecap="butt" stroke-linejoin="miter" stroke-opacity="1.0" stroke-width="1.8594536058172508" fill-opacity="0.0"><path d="M 75.8892,95.5454 l -32.8708,-6.5742 "/></g><g stroke="rgb(0,0,0)" fill="rgb(0,0,0)" stroke-miterlimit="10.0" stroke-linecap="butt" stroke-linejoin="miter" stroke-opacity="1.0" stroke-width="0.6674110460789737" fill-opacity="1.0"><path d="M 95.6031,70.0823 l -5.3883,1.4438 l 1.4438,-5.3883 Z"/></g><g stroke="rgb(0,0,0)" fill="rgb(255,255,255)" stroke-miterlimit="10.0" stroke-linecap="butt" stroke-linejoin="miter" stroke-opacity="1.0" stroke-width="0.6674110460789737" fill-opacity="1.0"><path d="M 106.9553,67.9339 c 0.7262,0.7262 0.7262,1.9035 0.0000 2.6297c -0.7262,0.7262 -1.9035,0.7262 -2.6297 0.0000c -0.7262,-0.7262 -0.7262,-1.9035 -0.0000 -2.6297c 0.7262,-0.7262 1.9035,-0.7262 2.6297 -0.0000Z"/></g><g stroke="rgb(0,0,0)" fill="rgb(0,0,0)" stroke-miterlimit="10.0" stroke-linecap="butt" stroke-linejoin="miter" stroke-opacity="1.0" stroke-width="1.8594536058172508" fill-opacity="0.0"><path d="M 105.6405,69.2487 l -13.1483,-0.0000 "/></g><g stroke="rgb(0,0,0)" fill="rgb(0,0,0)" stroke-miterlimit="10.0" stroke-linecap="butt" stroke-linejoin="miter" stroke-opacity="1.0" stroke-width="0.6674110460789737" fill-opacity="1.0"><path d="M 108.7514,70.0823 l -5.3883,1.4438 l 1.4438,-5.3883 Z"/></g><g stroke="rgb(0,0,0)" fill="rgb(255,255,255)" stroke-miterlimit="10.0" stroke-linecap="butt" stroke-linejoin="miter" stroke-opacity="1.0" stroke-width="0.6674110460789737" fill-opacity="1.0"><path d="M 123.3907,64.6468 c 0.7262,0.7262 0.7262,1.9035 0.0000 2.6297c -0.7262,0.7262 -1.9035,0.7262 -2.6297 0.0000c -0.7262,-0.7262 -0.7262,-1.9035 -0.0000 -2.6297c 0.7262,-0.7262 1.9035,-0.7262 2.6297 -0.0000Z"/></g><g stroke="rgb(0,0,0)" fill="rgb(0,0,0)" stroke-miterlimit="10.0" stroke-linecap="butt" stroke-linejoin="miter" stroke-opacity="1.0" stroke-width="1.8594536058172508" fill-opacity="0.0"><path d="M 122.0759,65.9616 l -16.4354,3.2871 "/></g><g stroke="rgb(0,0,0)" fill="rgb(0,0,0)" stroke-miterlimit="10.0" stroke-linecap="butt" stroke-linejoin="miter" stroke-opacity="1.0" stroke-width="0.6674110460789737" fill-opacity="1.0"><path d="M 125.1868,66.7952 l -5.3883,1.4438 l 1.4438,-5.3883 Z"/></g><g stroke="rgb(0,0,0)" fill="rgb(255,255,255)" stroke-miterlimit="10.0" stroke-linecap="butt" stroke-linejoin="miter" stroke-opacity="1.0" stroke-width="0.6674110460789737" fill-opacity="1.0"><path d="M 146.4003,67.9339 c 0.7262,0.7262 0.7262,1.9035 0.0000 2.6297c -0.7262,0.7262 -1.9035,0.7262 -2.6297 0.0000c -0.7262,-0.7262 -0.7262,-1.9035 -0.0000 -2.6297c 0.7262,-0.7262 1.9035,-0.7262 2.6297 -0.0000Z"/></g><g stroke="rgb(0,0,0)" fill="rgb(0,0,0)" stroke-miterlimit="10.0" stroke-linecap="butt" stroke-linejoin="miter" stroke-opacity="1.0" stroke-width="1.8594536058172508" fill-opacity="0.0"><path d="M 145.0855,69.2487 l -23.0096,-3.2871 "/></g><g stroke="rgb(0,0,0)" fill="rgb(0,0,0)" stroke-miterlimit="10.0" stroke-linecap="butt" stroke-linejoin="miter" stroke-opacity="1.0" stroke-width="0.6674110460789737" fill-opacity="1.0"><path d="M 148.1964,70.0823 l -5.3883,1.4438 l 1.4438,-5.3883 Z"/></g><g stroke="rgb(0,0,0)" fill="rgb(255,255,255)" stroke-miterlimit="10.0" stroke-linecap="butt" stroke-linejoin="miter" stroke-opacity="1.0" stroke-width="0.6674110460789737" fill-opacity="1.0"><path d="M 139.8261,87.6564 c 0.7262,0.7262 0.7262,1.9035 0.0000 2.6297c -0.7262,0.7262 -1.9035,0.7262 -2.6297 0.0000c -0.7262,-0.7262 -0.7262,-1.9035 -0.0000 -2.6297c 0.7262,-0.7262 1.9035,-0.7262 2.6297 -0.0000Z"/></g><g stroke="rgb(0,0,0)" fill="rgb(0,0,0)" stroke-miterlimit="10.0" stroke-linecap="butt" stroke-linejoin="miter" stroke-opacity="1.0" stroke-width="1.8594536058172508" fill-opacity="0.0"><path d="M 138.5113,88.9712 l 6.5742,-19.7225 "/></g><g stroke="rgb(0,0,0)" fill="rgb(0,0,0)" stroke-miterlimit="10.0" stroke-linecap="butt" stroke-linejoin="miter" stroke-opacity="1.0" stroke-width="0.6674110460789737" fill-opacity="1.0"><path d="M 141.6222,89.8048 l -5.3883,1.4438 l 1.4438,-5.3883 Z"/></g><g stroke="rgb(0,0,0)" fill="rgb(255,255,255)" stroke-miterlimit="10.0" stroke-linecap="butt" stroke-linejoin="miter" stroke-opacity="1.0" stroke-width="0.6674110460789737" fill-opacity="1.0"><path d="M 106.9553,94.2305 c 0.7262,0.7262 0.7262,1.9035 0.0000 2.6297c -0.7262,0.7262 -1.9035,0.7262 -2.6297 0.0000c -0.7262,-0.7262 -0.7262,-1.9035 -0.0000 -2.6297c 0.7262,-0.7262 1.9035,-0.7262 2.6297 -0.0000Z"/></g><g stroke="rgb(0,0,0)" fill="rgb(0,0,0)" stroke-miterlimit="10.0" stroke-linecap="butt" stroke-linejoin="miter" stroke-opacity="1.0" stroke-width="1.8594536058172508" fill-opacity="0.0"><path d="M 105.6405,95.5454 l 32.8708,-6.5742 "/></g><g stroke="rgb(0,0,0)" fill="rgb(211,211,211)" stroke-miterlimit="10.0" stroke-linecap="butt" stroke-linejoin="miter" stroke-opacity="1.0" stroke-width="0.6674110460789737" fill-opacity="1.0"><path d="M 160.4146,28.9897 l -13.0341,12.0312 l -0.7092,-17.7239 Z"/></g><g stroke="rgb(0,0,0)" fill="rgb(128,128,128)" stroke-miterlimit="10.0" stroke-linecap="butt" stroke-linejoin="miter" stroke-opacity="1.0" stroke-width="0.6674110460789737" fill-opacity="1.0"><path d="M 163.5277,29.7080 l -13.6878,10.6919 l 2.4155,-17.1999 Z"/></g><g stroke="rgb(0,0,0)" fill="rgb(169,169,169)" stroke-miterlimit="10.0" stroke-linecap="butt" stroke-linejoin="miter" stroke-opacity="1.0" stroke-width="0.6674110460789737" fill-opacity="1.0"><path d="M 166.6667,31.2515 l -15.3313,7.4423 l 7.4423,-15.3313 Z"/></g><g stroke="rgb(0,0,0)" fill="rgb(211,211,211)" stroke-miterlimit="10.0" stroke-linecap="butt" stroke-linejoin="miter" stroke-opacity="1.0" stroke-width="0.6674110460789737" fill-opacity="1.0"><path d="M 137.6359,51.7684 l 12.0312,-13.0341 l -17.7239,-0.7092 Z"/></g><g stroke="rgb(0,0,0)" fill="rgb(128,128,128)" stroke-miterlimit="10.0" stroke-linecap="butt" stroke-linejoin="miter" stroke-opacity="1.0" stroke-width="0.6674110460789737" fill-opacity="1.0"><path d="M 138.3541,54.8816 l 10.6919,-13.6878 l -17.1999,2.4155 Z"/></g><g stroke="rgb(0,0,0)" fill="rgb(169,169,169)" stroke-miterlimit="10.0" stroke-linecap="butt" stroke-linejoin="miter" stroke-opacity="1.0" stroke-width="0.6674110460789737" fill-opacity="1.0"><path d="M 139.8976,58.0205 l 7.4423,-15.3313 l -15.3313,7.4423 Z"/></g><g stroke="rgb(0,0,0)" fill="rgb(70,0,70)" stroke-miterlimit="10.0" stroke-linecap="butt" stroke-linejoin="miter" stroke-opacity="1.0" stroke-width="0.6674110460789737" fill-opacity="1.0"><path d="M 141.7210,29.1303 c -0.3631,-0.3631 -0.9518,-0.3631 -1.3148 -0.0000c -0.3631,0.3631 -0.3631,0.9518 -0.0000 1.3148c 0.3631,0.3631 0.9518,0.3631 1.3148 0.0000c 0.3631,-0.3631 0.3631,-0.9518 0.0000 -1.3148Z"/></g><g stroke="rgb(0,0,0)" fill="rgb(70,0,70)" stroke-miterlimit="10.0" stroke-linecap="butt" stroke-linejoin="miter" stroke-opacity="1.0" stroke-width="0.6674110460789737" fill-opacity="1.0"><path d="M 139.0913,31.7600 c -0.3631,-0.3631 -0.9518,-0.3631 -1.3148 -0.0000c -0.3631,0.3631 -0.3631,0.9518 -0.0000 1.3148c 0.3631,0.3631 0.9518,0.3631 1.3148 0.0000c 0.3631,-0.3631 0.3631,-0.9518 0.0000 -1.3148Z"/></g><g stroke="rgb(0,0,0)" fill="rgb(70,0,70)" stroke-miterlimit="10.0" stroke-linecap="butt" stroke-linejoin="miter" stroke-opacity="1.0" stroke-width="0.6674110460789737" fill-opacity="1.0"><path d="M 144.3506,31.7600 c -1.0892,-1.0892 -2.8553,-1.0892 -3.9445 -0.0000c -1.0892,1.0892 -1.0892,2.8553 -0.0000 3.9445c 1.0892,1.0892 2.8553,1.0892 3.9445 0.0000c 1.0892,-1.0892 1.0892,-2.8553 0.0000 -3.9445Z"/></g><g stroke="rgb(0,0,0)" fill="rgb(50,0,50)" stroke-miterlimit="10.0" stroke-linecap="butt" stroke-linejoin="miter" stroke-opacity="1.0" stroke-width="0.6674110460789737" fill-opacity="1.0"><path d="M 154.2119,37.6767 c -3.6308,-3.6308 -8.3402,-4.8081 -10.5187 -2.6297c -2.1785,2.1785 -1.0011,6.8878 2.6297 10.5187c 3.6308,3.6308 8.3402,4.8081 10.5187 2.6297c 2.1785,-2.1785 1.0011,-6.8878 -2.6297 -10.5187Z"/></g><g stroke="rgb(0,0,0)" fill="rgb(139,69,19)" stroke-miterlimit="10.0" stroke-linecap="butt" stroke-linejoin="miter" stroke-opacity="1.0" stroke-width="0.6674110460789737" fill-opacity="1.0"><path d="M 151.8074,38.2593 c -0.7936,0.2126 -1.2645,1.0283 -1.0519 1.8219c 0.2126,0.7936 1.0283,1.2645 1.8219 1.0519c 0.7936,-0.2126 1.2645,-1.0283 1.0519 -1.8219c -0.2126,-0.7936 -1.0283,-1.2645 -1.8219 -1.0519Z"/></g><g stroke="rgb(0,0,0)" fill="rgb(222,184,135)" stroke-miterlimit="10.0" stroke-linecap="butt" stroke-linejoin="miter" stroke-opacity="1.0" stroke-width="0.6674110460789737" fill-opacity="1.0"><path d="M 138.2405,41.5095 l -8.9805,2.4063 l 0.9625,3.5922 l 8.9805,-2.4063 Z"/></g><g stroke="rgb(0,0,0)" fill="rgb(205,133,63)" stroke-miterlimit="10.0" stroke-linecap="butt" stroke-linejoin="miter" stroke-opacity="1.0" stroke-width="0.6674110460789737" fill-opacity="1.0"><path d="M 151.9037,38.6185 l -14.3688,3.8501 l 0.5775,2.1553 l 14.3688,-3.8501 Z"/></g><g stroke="rgb(0,0,0)" fill="rgb(211,211,211)" stroke-miterlimit="10.0" stroke-linecap="butt" stroke-linejoin="miter" stroke-opacity="1.0" stroke-width="0.6674110460789737" fill-opacity="1.0"><path d="M 107.9106,89.7656 l -0.1646,-8.5195 l -5.1408,6.7957 Z"/></g><g stroke="rgb(0,0,0)" fill="rgb(211,211,211)" stroke-miterlimit="10.0" stroke-linecap="butt" stroke-linejoin="miter" stroke-opacity="1.0" stroke-width="0.6674110460789737" fill-opacity="1.0"><path d="M 78.9245,88.0418 l -5.1408,-6.7957 l -0.1646,8.5195 Z"/></g><g stroke="rgb(255,192,203)" stroke-dashoffset="0.0" fill="rgb(211,211,211)" stroke-miterlimit="10.0" stroke-dasharray="3.7189072116345017,0.9297268029086254" stroke-linecap="butt" stroke-linejoin="miter" stroke-opacity="1.0" stroke-width="1.6685276151974344" fill-opacity="1.0"><path d="M 109.3594,97.4048 c 0.0000,-10.2695 -8.3251,-18.5945 -18.5945 -18.5945c -10.2695,-0.0000 -18.5945,8.3251 -18.5945 18.5945c -0.0000,10.2695 8.3251,18.5945 18.5945 18.5945c 10.2695,0.0000 18.5945,-8.3251 18.5945 -18.5945Z"/></g><g stroke="rgb(0,0,0)" fill="rgb(0,0,0)" stroke-miterlimit="10.0" stroke-linecap="butt" stroke-linejoin="miter" stroke-opacity="1.0" stroke-width="0.5" fill-opacity="0.0"><path d="M 103.7810,101.1237 h 11.1567 "/></g><g stroke="rgb(0,0,0)" fill="rgb(0,0,0)" stroke-miterlimit="10.0" stroke-linecap="butt" stroke-linejoin="miter" stroke-opacity="1.0" stroke-width="0.5" fill-opacity="0.0"><path d="M 66.5920,101.1237 h 11.1567 "/></g><g stroke="rgb(0,0,0)" fill="rgb(0,0,0)" stroke-miterlimit="10.0" stroke-linecap="butt" stroke-linejoin="miter" stroke-opacity="1.0" stroke-width="0.5" fill-opacity="0.0"><path d="M 103.7810,99.2643 h 11.1567 "/></g><g stroke="rgb(0,0,0)" fill="rgb(0,0,0)" stroke-miterlimit="10.0" stroke-linecap="butt" stroke-linejoin="miter" stroke-opacity="1.0" stroke-width="0.5" fill-opacity="0.0"><path d="M 66.5920,99.2643 h 11.1567 "/></g><g stroke="rgb(0,0,0)" fill="rgb(0,0,0)" stroke-miterlimit="10.0" stroke-linecap="butt" stroke-linejoin="miter" stroke-opacity="1.0" stroke-width="0.5" fill-opacity="0.0"><path d="M 103.7810,97.4048 h 11.1567 "/></g><g stroke="rgb(0,0,0)" fill="rgb(0,0,0)" stroke-miterlimit="10.0" stroke-linecap="butt" stroke-linejoin="miter" stroke-opacity="1.0" stroke-width="0.5" fill-opacity="0.0"><path d="M 66.5920,97.4048 h 11.1567 "/></g><g stroke="rgb(0,0,0)" fill="rgb(0,0,0)" stroke-miterlimit="10.0" stroke-linecap="butt" stroke-linejoin="miter" stroke-opacity="1.0" stroke-width="0.5" fill-opacity="0.0"><path d="M 87.0459,104.8426 h 7.4378 "/></g><g stroke="rgb(0,0,0)" fill="rgb(0,0,0)" stroke-miterlimit="10.0" stroke-linecap="butt" stroke-linejoin="miter" stroke-opacity="1.0" stroke-width="0.5" fill-opacity="0.0"><path d="M 90.7649,97.4048 v 7.4378 "/></g><g stroke="rgb(0,0,0)" fill="rgb(255,192,203)" stroke-miterlimit="10.0" stroke-linecap="butt" stroke-linejoin="miter" stroke-opacity="1.0" stroke-width="0.6674110460789737" fill-opacity="1.0"><path d="M 88.3476,96.0092 l 2.4173,4.1869 l 2.4173,-4.1869 Z"/></g><g stroke="rgb(0,0,0)" fill="rgb(0,0,0)" stroke-miterlimit="10.0" stroke-linecap="butt" stroke-linejoin="miter" stroke-opacity="1.0" stroke-width="0.6674110460789737" fill-opacity="1.0"><path d="M 100.6200,92.7562 c 0.0000,-1.3350 -1.0823,-2.4173 -2.4173 -2.4173c -1.3350,-0.0000 -2.4173,1.0823 -2.4173 2.4173c -0.0000,1.3350 1.0823,2.4173 2.4173 2.4173c 1.3350,0.0000 2.4173,-1.0823 2.4173 -2.4173Z"/></g><g stroke="rgb(0,0,0)" fill="rgb(0,0,0)" stroke-miterlimit="10.0" stroke-linecap="butt" stroke-linejoin="miter" stroke-opacity="1.0" stroke-width="0.6674110460789737" fill-opacity="1.0"><path d="M 85.7443,92.7562 c 0.0000,-1.3350 -1.0823,-2.4173 -2.4173 -2.4173c -1.3350,-0.0000 -2.4173,1.0823 -2.4173 2.4173c -0.0000,1.3350 1.0823,2.4173 2.4173 2.4173c 1.3350,0.0000 2.4173,-1.0823 2.4173 -2.4173Z"/></g><g stroke="rgb(0,0,0)" fill="rgb(0,0,0)" stroke-miterlimit="10.0" stroke-linecap="butt" stroke-linejoin="miter" stroke-opacity="1.0" stroke-width="0.6674110460789737" fill-opacity="1.0"><path d="M 85.7443,92.7562 c 0.0000,-1.3350 -1.0823,-2.4173 -2.4173 -2.4173c -1.3350,-0.0000 -2.4173,1.0823 -2.4173 2.4173c -0.0000,1.3350 1.0823,2.4173 2.4173 2.4173c 1.3350,0.0000 2.4173,-1.0823 2.4173 -2.4173Z"/></g><g stroke="rgb(0,0,0)" fill="rgb(0,0,0)" stroke-miterlimit="10.0" stroke-linecap="butt" stroke-linejoin="miter" stroke-opacity="1.0" stroke-width="5.0e-2" fill-opacity="0.0"><path d="M 112.1486,82.5292 v 4.6486 "/></g><g stroke="rgb(0,0,0)" fill="rgb(0,0,0)" stroke-miterlimit="10.0" stroke-linecap="butt" stroke-linejoin="miter" stroke-opacity="1.0" stroke-width="0.1" fill-opacity="0.0"><path d="M 112.1486,87.1778 h -3.7189 "/></g><g stroke="rgb(0,0,0)" fill="rgb(0,0,0)" stroke-miterlimit="10.0" stroke-linecap="butt" stroke-linejoin="miter" stroke-opacity="1.0" stroke-width="0.1" fill-opacity="0.0"><path d="M 112.1486,87.1778 h 3.7189 "/></g><g stroke="rgb(0,0,0)" fill="rgb(0,0,0)" stroke-miterlimit="10.0" stroke-linecap="butt" stroke-linejoin="miter" stroke-opacity="1.0" stroke-width="0.1" fill-opacity="0.0"><path d="M 111.2188,87.1778 l -1.8595,-2.7892 "/></g><g stroke="rgb(0,0,0)" fill="rgb(0,0,0)" stroke-miterlimit="10.0" stroke-linecap="butt" stroke-linejoin="miter" stroke-opacity="1.0" stroke-width="0.1" fill-opacity="0.0"><path d="M 111.2188,87.1778 l -1.8595,-2.7892 "/></g><g stroke="rgb(0,0,0)" fill="rgb(0,0,0)" stroke-miterlimit="10.0" stroke-linecap="butt" stroke-linejoin="miter" stroke-opacity="1.0" stroke-width="0.1" fill-opacity="0.0"><path d="M 113.0783,87.1778 l 1.8595,2.7892 "/></g><g stroke="rgb(0,0,0)" fill="rgb(0,0,0)" stroke-miterlimit="10.0" stroke-linecap="butt" stroke-linejoin="miter" stroke-opacity="1.0" stroke-width="0.1" fill-opacity="0.0"><path d="M 111.2188,87.1778 l -1.8595,2.7892 "/></g><g stroke="rgb(0,0,0)" fill="rgb(0,0,0)" stroke-miterlimit="10.0" stroke-linecap="butt" stroke-linejoin="miter" stroke-opacity="1.0" stroke-width="0.0" fill-opacity="1.0"><path d="M 113.5432,87.1778 c 0.0000,-0.7702 -0.6244,-1.3946 -1.3946 -1.3946c -0.7702,-0.0000 -1.3946,0.6244 -1.3946 1.3946c -0.0000,0.7702 0.6244,1.3946 1.3946 1.3946c 0.7702,0.0000 1.3946,-0.6244 1.3946 -1.3946Z"/></g><g stroke="rgb(0,0,0)" fill="rgb(128,0,128)" stroke-miterlimit="10.0" stroke-linecap="butt" stroke-linejoin="miter" stroke-opacity="1.0" stroke-width="0.5" fill-opacity="1.0"><path d="M 90.7649,36.0428 l -18.5945,37.1891 h 37.1891 Z"/></g><g stroke="rgb(0,0,0)" fill="rgb(255,255,0)" stroke-miterlimit="10.0" stroke-linecap="butt" stroke-linejoin="miter" stroke-opacity="1.0" stroke-width="0.5" fill-opacity="1.0"><path d="M 116.6919,77.8806 l -4.0258,-2.3243 v 4.6486 Z"/></g><g stroke="rgb(0,0,0)" fill="rgb(255,255,0)" stroke-miterlimit="10.0" stroke-linecap="butt" stroke-linejoin="miter" stroke-opacity="1.0" stroke-width="0.5" fill-opacity="1.0"><path d="M 107.3946,77.8806 l -4.0258,-2.3243 v 4.6486 Z"/></g><g stroke="rgb(0,0,0)" fill="rgb(255,255,0)" stroke-miterlimit="10.0" stroke-linecap="butt" stroke-linejoin="miter" stroke-opacity="1.0" stroke-width="0.5" fill-opacity="1.0"><path d="M 98.0974,77.8806 l -4.0258,-2.3243 v 4.6486 Z"/></g><g stroke="rgb(0,0,0)" fill="rgb(255,255,0)" stroke-miterlimit="10.0" stroke-linecap="butt" stroke-linejoin="miter" stroke-opacity="1.0" stroke-width="0.5" fill-opacity="1.0"><path d="M 88.8001,77.8806 l -4.0258,-2.3243 v 4.6486 Z"/></g><g stroke="rgb(0,0,0)" fill="rgb(255,255,0)" stroke-miterlimit="10.0" stroke-linecap="butt" stroke-linejoin="miter" stroke-opacity="1.0" stroke-width="0.5" fill-opacity="1.0"><path d="M 79.5028,77.8806 l -4.0258,-2.3243 v 4.6486 Z"/></g><g stroke="rgb(0,0,0)" fill="rgb(255,255,0)" stroke-miterlimit="10.0" stroke-linecap="butt" stroke-linejoin="miter" stroke-opacity="1.0" stroke-width="0.5" fill-opacity="1.0"><path d="M 70.2056,77.8806 l -4.0258,-2.3243 v 4.6486 Z"/></g><g stroke="rgb(0,0,0)" fill="rgb(0,0,0)" stroke-miterlimit="10.0" stroke-linecap="butt" stroke-linejoin="miter" stroke-opacity="1.0" stroke-width="0.0" fill-opacity="1.0"><path d="M 118.6567,77.8806 h 0.0000 c 0.0000,-2.5674 -2.0813,-4.6486 -4.6486 -4.6486h -46.4863 c -2.5674,-0.0000 -4.6486,2.0813 -4.6486 4.6486h 0.0000 c -0.0000,2.5674 2.0813,4.6486 4.6486 4.6486h 46.4863 c 2.5674,0.0000 4.6486,-2.0813 4.6486 -4.6486Z"/></g><g stroke="rgb(0,0,0)" fill="rgb(0,0,0)" stroke-miterlimit="10.0" stroke-linecap="butt" stroke-linejoin="miter" stroke-opacity="1.0" stroke-width="0.0" fill-opacity="1.0"><path d="M 106.1053,65.3292 l -0.0000,-2.7892 h -30.6810 l -0.0000,2.7892 Z"/></g><g stroke="rgb(0,0,0)" fill="rgb(255,165,0)" stroke-miterlimit="10.0" stroke-linecap="butt" stroke-linejoin="miter" stroke-opacity="1.0" stroke-width="0.0" fill-opacity="1.0"><path d="M 93.5540,64.8644 v -1.8595 c 0.0000,-0.5135 -0.4163,-0.9297 -0.9297 -0.9297h -3.7189 c -0.5135,-0.0000 -0.9297,0.4163 -0.9297 0.9297v 1.8595 c -0.0000,0.5135 0.4163,0.9297 0.9297 0.9297h 3.7189 c 0.5135,0.0000 0.9297,-0.4163 0.9297 -0.9297Z"/></g><g stroke="rgb(0,0,0)" fill="rgb(0,0,0)" stroke-miterlimit="10.0" stroke-linecap="butt" stroke-linejoin="miter" stroke-opacity="1.0" stroke-width="0.0" fill-opacity="1.0"><path d="M 92.6243,63.9346 h 0.0000 c 0.0000,-0.5135 -0.4163,-0.9297 -0.9297 -0.9297h -1.8595 c -0.5135,-0.0000 -0.9297,0.4163 -0.9297 0.9297h 0.0000 c -0.0000,0.5135 0.4163,0.9297 0.9297 0.9297h 1.8595 c 0.5135,0.0000 0.9297,-0.4163 0.9297 -0.9297Z"/></g></svg>