<?xml version="1.0" encoding="UTF-8"?>
<!DOCTYPE svg PUBLIC "-//W3C//DTD SVG 1.1//EN"
    "http://www.w3.org/Graphics/SVG/1.1/DTD/svg11.dtd"><svg font-size="1" stroke="rgb(0,0,0)" width="200.0000" xmlns="http://www.w3.org/2000/svg" viewBox="0.0 0.0 200.00000000000003 98.36471891924326" xmlns:xlink="http://www.w3.org/1999/xlink" version="1.1" stroke-opacity="1" height="98.3647"><defs></defs><g opacity="0.5" stroke="rgb(0,0,0)" fill="rgb(173,216,230)" stroke-miterlimit="10.0" stroke-linecap="butt" stroke-linejoin="miter" stroke-opacity="1.0" stroke-width="1.0178509475253212" fill-opacity="1.0"><path d="M 83.7144,59.5779 c -17.2735,-17.2735 -14.3946,-28.7892 7.1973 -21.5919Z"/></g><g opacity="0.5" stroke="rgb(0,0,0)" fill="rgb(173,216,230)" stroke-miterlimit="10.0" stroke-linecap="butt" stroke-linejoin="miter" stroke-opacity="1.0" stroke-width="1.0178509475253212" fill-opacity="1.0"><path d="M 83.7144,59.5779 c -50.3811,-21.5919 -50.3811,-35.9865 -14.3946 -43.1838Z"/></g><g opacity="0.5" stroke="rgb(0,0,0)" fill="rgb(173,216,230)" stroke-miterlimit="10.0" stroke-linecap="butt" stroke-linejoin="miter" stroke-opacity="1.0" stroke-width="1.0178509475253212" fill-opacity="1.0"><path d="M 83.7144,59.5779 c -28.7892,14.3946 -10.0762,4.3184 -17.2735 -17.2735Z"/></g><g opacity="1.0" stroke="rgb(0,0,0)" fill="rgb(173,216,230)" stroke-miterlimit="10.0" stroke-linecap="butt" stroke-linejoin="miter" stroke-opacity="1.0" stroke-width="1.0178509475253212" fill-opacity="1.0"><path d="M 83.7144,59.5779 c -28.7892,14.3946 -50.3811,7.1973 -50.3811 -21.5919Z"/></g><g opacity="0.5" stroke="rgb(0,0,0)" fill="rgb(173,216,230)" stroke-miterlimit="10.0" stroke-linecap="butt" stroke-linejoin="miter" stroke-opacity="1.0" stroke-width="1.0178509475253212" fill-opacity="1.0"><path d="M 116.2856,59.5779 c 17.2735,-17.2735 14.3946,-28.7892 -7.1973 -21.5919Z"/></g><g opacity="0.5" stroke="rgb(0,0,0)" fill="rgb(173,216,230)" stroke-miterlimit="10.0" stroke-linecap="butt" stroke-linejoin="miter" stroke-opacity="1.0" stroke-width="1.0178509475253212" fill-opacity="1.0"><path d="M 116.2856,59.5779 c 50.3811,-21.5919 50.3811,-35.9865 14.3946 -43.1838Z"/></g><g opacity="0.5" stroke="rgb(0,0,0)" fill="rgb(173,216,230)" stroke-miterlimit="10.0" stroke-linecap="butt" stroke-linejoin="miter" stroke-opacity="1.0" stroke-width="1.0178509475253212" fill-opacity="1.0"><path d="M 116.2856,59.5779 c 28.7892,14.3946 10.0762,4.3184 17.2735 -17.2735Z"/></g><g opacity="1.0" stroke="rgb(0,0,0)" fill="rgb(173,216,230)" stroke-miterlimit="10.0" stroke-linecap="butt" stroke-linejoin="miter" stroke-opacity="1.0" stroke-width="1.0178509475253212" fill-opacity="1.0"><path d="M 116.2856,59.5779 c 28.7892,14.3946 50.3811,7.1973 50.3811 -21.5919Z"/></g><g stroke="rgb(0,0,0)" fill="rgb(211,211,211)" stroke-miterlimit="10.0" stroke-linecap="butt" stroke-linejoin="miter" stroke-opacity="1.0" stroke-width="0.561041086322186" fill-opacity="1.0"><path d="M 118.7709,53.2503 l -0.1802,-9.3270 l -5.6280,7.4398 Z"/></g><g stroke="rgb(0,0,0)" fill="rgb(211,211,211)" stroke-miterlimit="10.0" stroke-linecap="butt" stroke-linejoin="miter" stroke-opacity="1.0" stroke-width="0.561041086322186" fill-opacity="1.0"><path d="M 87.0373,51.3631 l -5.6280,-7.4398 l -0.1802,9.3270 Z"/></g><g stroke="rgb(255,192,203)" stroke-dashoffset="0.0" fill="rgb(211,211,211)" stroke-miterlimit="10.0" stroke-dasharray="4.071403790101285,1.0178509475253212" stroke-linecap="butt" stroke-linejoin="miter" stroke-opacity="1.0" stroke-width="1.4026027158054648" fill-opacity="1.0"><path d="M 120.3570,61.6136 c 0.0000,-11.2429 -9.1141,-20.3570 -20.3570 -20.3570c -11.2429,-0.0000 -20.3570,9.1141 -20.3570 20.3570c -0.0000,11.2429 9.1141,20.3570 20.3570 20.3570c 11.2429,0.0000 20.3570,-9.1141 20.3570 -20.3570Z"/></g><g stroke="rgb(0,0,0)" fill="rgb(0,0,0)" stroke-miterlimit="10.0" stroke-linecap="butt" stroke-linejoin="miter" stroke-opacity="1.0" stroke-width="0.5" fill-opacity="0.0"><path d="M 114.2499,65.6850 h 12.2142 "/></g><g stroke="rgb(0,0,0)" fill="rgb(0,0,0)" stroke-miterlimit="10.0" stroke-linecap="butt" stroke-linejoin="miter" stroke-opacity="1.0" stroke-width="0.5" fill-opacity="0.0"><path d="M 73.5359,65.6850 h 12.2142 "/></g><g stroke="rgb(0,0,0)" fill="rgb(0,0,0)" stroke-miterlimit="10.0" stroke-linecap="butt" stroke-linejoin="miter" stroke-opacity="1.0" stroke-width="0.5" fill-opacity="0.0"><path d="M 114.2499,63.6493 h 12.2142 "/></g><g stroke="rgb(0,0,0)" fill="rgb(0,0,0)" stroke-miterlimit="10.0" stroke-linecap="butt" stroke-linejoin="miter" stroke-opacity="1.0" stroke-width="0.5" fill-opacity="0.0"><path d="M 73.5359,63.6493 h 12.2142 "/></g><g stroke="rgb(0,0,0)" fill="rgb(0,0,0)" stroke-miterlimit="10.0" stroke-linecap="butt" stroke-linejoin="miter" stroke-opacity="1.0" stroke-width="0.5" fill-opacity="0.0"><path d="M 114.2499,61.6136 h 12.2142 "/></g><g stroke="rgb(0,0,0)" fill="rgb(0,0,0)" stroke-miterlimit="10.0" stroke-linecap="butt" stroke-linejoin="miter" stroke-opacity="1.0" stroke-width="0.5" fill-opacity="0.0"><path d="M 73.5359,61.6136 h 12.2142 "/></g><g stroke="rgb(0,0,0)" fill="rgb(0,0,0)" stroke-miterlimit="10.0" stroke-linecap="butt" stroke-linejoin="miter" stroke-opacity="1.0" stroke-width="0.5" fill-opacity="0.0"><path d="M 95.9286,69.7564 h 8.1428 "/></g><g stroke="rgb(0,0,0)" fill="rgb(0,0,0)" stroke-miterlimit="10.0" stroke-linecap="butt" stroke-linejoin="miter" stroke-opacity="1.0" stroke-width="0.5" fill-opacity="0.0"><path d="M 100.0000,61.6136 v 8.1428 "/></g><g stroke="rgb(0,0,0)" fill="rgb(255,192,203)" stroke-miterlimit="10.0" stroke-linecap="butt" stroke-linejoin="miter" stroke-opacity="1.0" stroke-width="0.561041086322186" fill-opacity="1.0"><path d="M 97.3536,60.0857 l 2.6464,4.5837 l 2.6464,-4.5837 Z"/></g><g stroke="rgb(0,0,0)" fill="rgb(0,0,255)" stroke-miterlimit="10.0" stroke-linecap="butt" stroke-linejoin="miter" stroke-opacity="1.0" stroke-width="0.561041086322186" fill-opacity="1.0"><path d="M 110.7892,56.5243 c 0.0000,-1.4616 -1.1848,-2.6464 -2.6464 -2.6464c -1.4616,-0.0000 -2.6464,1.1848 -2.6464 2.6464c -0.0000,1.4616 1.1848,2.6464 2.6464 2.6464c 1.4616,0.0000 2.6464,-1.1848 2.6464 -2.6464Z"/></g><g stroke="rgb(0,0,0)" fill="rgb(255,0,0)" stroke-miterlimit="10.0" stroke-linecap="butt" stroke-linejoin="miter" stroke-opacity="1.0" stroke-width="0.561041086322186" fill-opacity="1.0"><path d="M 94.5036,56.5243 c 0.0000,-1.4616 -1.1848,-2.6464 -2.6464 -2.6464c -1.4616,-0.0000 -2.6464,1.1848 -2.6464 2.6464c -0.0000,1.4616 1.1848,2.6464 2.6464 2.6464c 1.4616,0.0000 2.6464,-1.1848 2.6464 -2.6464Z"/></g><g stroke="rgb(0,0,0)" fill="rgb(255,0,0)" stroke-miterlimit="10.0" stroke-linecap="butt" stroke-linejoin="miter" stroke-opacity="1.0" stroke-width="0.561041086322186" fill-opacity="1.0"><path d="M 94.5036,56.5243 c 0.0000,-1.4616 -1.1848,-2.6464 -2.6464 -2.6464c -1.4616,-0.0000 -2.6464,1.1848 -2.6464 2.6464c -0.0000,1.4616 1.1848,2.6464 2.6464 2.6464c 1.4616,0.0000 2.6464,-1.1848 2.6464 -2.6464Z"/></g><g stroke="rgb(0,0,0)" fill="rgb(0,0,0)" stroke-miterlimit="10.0" stroke-linecap="butt" stroke-linejoin="miter" stroke-opacity="1.0" stroke-width="5.0e-2" fill-opacity="0.0"><path d="M 109.3642,45.3280 v 2.0357 "/></g><g stroke="rgb(0,0,0)" fill="rgb(0,0,0)" stroke-miterlimit="10.0" stroke-linecap="butt" stroke-linejoin="miter" stroke-opacity="1.0" stroke-width="0.1" fill-opacity="0.0"><path d="M 109.3642,47.3637 h -1.6286 "/></g><g stroke="rgb(0,0,0)" fill="rgb(0,0,0)" stroke-miterlimit="10.0" stroke-linecap="butt" stroke-linejoin="miter" stroke-opacity="1.0" stroke-width="0.1" fill-opacity="0.0"><path d="M 109.3642,47.3637 h 1.6286 "/></g><g stroke="rgb(0,0,0)" fill="rgb(0,0,0)" stroke-miterlimit="10.0" stroke-linecap="butt" stroke-linejoin="miter" stroke-opacity="1.0" stroke-width="0.1" fill-opacity="0.0"><path d="M 108.9571,47.3637 l -0.8143,-1.2214 "/></g><g stroke="rgb(0,0,0)" fill="rgb(0,0,0)" stroke-miterlimit="10.0" stroke-linecap="butt" stroke-linejoin="miter" stroke-opacity="1.0" stroke-width="0.1" fill-opacity="0.0"><path d="M 108.9571,47.3637 l -0.8143,-1.2214 "/></g><g stroke="rgb(0,0,0)" fill="rgb(0,0,0)" stroke-miterlimit="10.0" stroke-linecap="butt" stroke-linejoin="miter" stroke-opacity="1.0" stroke-width="0.1" fill-opacity="0.0"><path d="M 109.7714,47.3637 l 0.8143,1.2214 "/></g><g stroke="rgb(0,0,0)" fill="rgb(0,0,0)" stroke-miterlimit="10.0" stroke-linecap="butt" stroke-linejoin="miter" stroke-opacity="1.0" stroke-width="0.1" fill-opacity="0.0"><path d="M 108.9571,47.3637 l -0.8143,1.2214 "/></g><g stroke="rgb(0,0,0)" fill="rgb(0,0,0)" stroke-miterlimit="10.0" stroke-linecap="butt" stroke-linejoin="miter" stroke-opacity="1.0" stroke-width="0.0" fill-opacity="1.0"><path d="M 109.9749,47.3637 c 0.0000,-0.3373 -0.2734,-0.6107 -0.6107 -0.6107c -0.3373,-0.0000 -0.6107,0.2734 -0.6107 0.6107c -0.0000,0.3373 0.2734,0.6107 0.6107 0.6107c 0.3373,0.0000 0.6107,-0.2734 0.6107 -0.6107Z"/></g><g stroke="rgb(0,0,0)" fill="rgb(255,255,0)" stroke-miterlimit="10.0" stroke-linecap="butt" stroke-linejoin="miter" stroke-opacity="1.0" stroke-width="0.5" fill-opacity="1.0"><path d="M 100.0000,24.9709 l -8.1428,16.2856 h 16.2856 Z"/></g><g stroke="rgb(0,0,0)" fill="rgb(255,255,0)" stroke-miterlimit="10.0" stroke-linecap="butt" stroke-linejoin="miter" stroke-opacity="1.0" stroke-width="0.5" fill-opacity="1.0"><path d="M 111.3538,43.2923 l -1.7630,-1.0179 v 2.0357 Z"/></g><g stroke="rgb(0,0,0)" fill="rgb(255,255,0)" stroke-miterlimit="10.0" stroke-linecap="butt" stroke-linejoin="miter" stroke-opacity="1.0" stroke-width="0.5" fill-opacity="1.0"><path d="M 107.2824,43.2923 l -1.7630,-1.0179 v 2.0357 Z"/></g><g stroke="rgb(0,0,0)" fill="rgb(255,255,0)" stroke-miterlimit="10.0" stroke-linecap="butt" stroke-linejoin="miter" stroke-opacity="1.0" stroke-width="0.5" fill-opacity="1.0"><path d="M 103.2110,43.2923 l -1.7630,-1.0179 v 2.0357 Z"/></g><g stroke="rgb(0,0,0)" fill="rgb(255,255,0)" stroke-miterlimit="10.0" stroke-linecap="butt" stroke-linejoin="miter" stroke-opacity="1.0" stroke-width="0.5" fill-opacity="1.0"><path d="M 99.1396,43.2923 l -1.7630,-1.0179 v 2.0357 Z"/></g><g stroke="rgb(0,0,0)" fill="rgb(255,255,0)" stroke-miterlimit="10.0" stroke-linecap="butt" stroke-linejoin="miter" stroke-opacity="1.0" stroke-width="0.5" fill-opacity="1.0"><path d="M 95.0682,43.2923 l -1.7630,-1.0179 v 2.0357 Z"/></g><g stroke="rgb(0,0,0)" fill="rgb(255,255,0)" stroke-miterlimit="10.0" stroke-linecap="butt" stroke-linejoin="miter" stroke-opacity="1.0" stroke-width="0.5" fill-opacity="1.0"><path d="M 90.9968,43.2923 l -1.7630,-1.0179 v 2.0357 Z"/></g><g stroke="rgb(0,0,0)" fill="rgb(0,0,0)" stroke-miterlimit="10.0" stroke-linecap="butt" stroke-linejoin="miter" stroke-opacity="1.0" stroke-width="0.0" fill-opacity="1.0"><path d="M 112.2142,43.2923 h 0.0000 c 0.0000,-1.1243 -0.9114,-2.0357 -2.0357 -2.0357h -20.3570 c -1.1243,-0.0000 -2.0357,0.9114 -2.0357 2.0357h 0.0000 c -0.0000,1.1243 0.9114,2.0357 2.0357 2.0357h 20.3570 c 1.1243,0.0000 2.0357,-0.9114 2.0357 -2.0357Z"/></g><g stroke="rgb(0,0,0)" fill="rgb(0,128,0)" stroke-miterlimit="10.0" stroke-linecap="butt" stroke-linejoin="miter" stroke-opacity="1.0" stroke-width="0.0" fill-opacity="1.0"><path d="M 106.7178,37.7959 l -0.0000,-1.2214 h -13.4356 l -0.0000,1.2214 Z"/></g><g stroke="rgb(0,0,0)" fill="rgb(255,165,0)" stroke-miterlimit="10.0" stroke-linecap="butt" stroke-linejoin="miter" stroke-opacity="1.0" stroke-width="0.0" fill-opacity="1.0"><path d="M 101.2214,37.5923 v -0.8143 c 0.0000,-0.2249 -0.1823,-0.4071 -0.4071 -0.4071h -1.6286 c -0.2249,-0.0000 -0.4071,0.1823 -0.4071 0.4071v 0.8143 c -0.0000,0.2249 0.1823,0.4071 0.4071 0.4071h 1.6286 c 0.2249,0.0000 0.4071,-0.1823 0.4071 -0.4071Z"/></g><g stroke="rgb(0,0,0)" fill="rgb(0,0,0)" stroke-miterlimit="10.0" stroke-linecap="butt" stroke-linejoin="miter" stroke-opacity="1.0" stroke-width="0.0" fill-opacity="1.0"><path d="M 100.8143,37.1852 h 0.0000 c 0.0000,-0.2249 -0.1823,-0.4071 -0.4071 -0.4071h -0.8143 c -0.2249,-0.0000 -0.4071,0.1823 -0.4071 0.4071h 0.0000 c -0.0000,0.2249 0.1823,0.4071 0.4071 0.4071h 0.8143 c 0.2249,0.0000 0.4071,-0.1823 0.4071 -0.4071Z"/></g></svg>