<?xml version="1.0" encoding="UTF-8"?>
<!DOCTYPE svg PUBLIC "-//W3C//DTD SVG 1.1//EN"
    "http://www.w3.org/Graphics/SVG/1.1/DTD/svg11.dtd"><svg font-size="1" stroke="rgb(0,0,0)" width="200.0000" xmlns="http://www.w3.org/2000/svg" viewBox="0.0 0.0 200.0 135.67515820882016" xmlns:xlink="http://www.w3.org/1999/xlink" version="1.1" stroke-opacity="1" height="135.6752"><defs></defs><g stroke="rgb(0,0,0)" fill="rgb(0,0,0)" stroke-miterlimit="10.0" stroke-linecap="butt" stroke-linejoin="miter" stroke-opacity="1.0" stroke-width="1.8123784164069363" fill-opacity="1.0"><path d="M 78.1874,93.1265 l -6.4077,19.2232 Z"/></g><g stroke="rgb(0,0,0)" fill="rgb(0,0,0)" stroke-miterlimit="10.0" stroke-linecap="butt" stroke-linejoin="miter" stroke-opacity="1.0" stroke-width="1.8123784164069363" fill-opacity="1.0"><path d="M 78.1874,93.1265 c -6.4077,-32.0386 6.4077,-32.0386 6.4077 -19.2232Z"/></g><g stroke="rgb(0,0,0)" fill="rgb(0,0,0)" stroke-miterlimit="10.0" stroke-linecap="butt" stroke-linejoin="miter" stroke-opacity="1.0" stroke-width="1.8123784164069363" fill-opacity="1.0"><path d="M 78.1874,93.1265 c -32.0386,-19.2232 -16.0193,-28.8348 -6.4077 -32.0386Z"/></g><g stroke="rgb(0,0,0)" fill="rgb(0,0,0)" stroke-miterlimit="10.0" stroke-linecap="butt" stroke-linejoin="miter" stroke-opacity="1.0" stroke-width="1.8123784164069363" fill-opacity="1.0"><path d="M 78.1874,93.1265 l 12.8155,-0.0000 l 32.0386,19.2232 Z"/></g><g stroke="rgb(0,0,0)" fill="rgb(0,0,0)" stroke-miterlimit="10.0" stroke-linecap="butt" stroke-linejoin="miter" stroke-opacity="1.0" stroke-width="1.8123784164069363" fill-opacity="1.0"><path d="M 78.1874,93.1265 c -25.6309,12.8155 -44.8541,6.4077 -44.8541 -19.2232Z"/></g><g stroke="rgb(0,0,0)" fill="rgb(0,0,0)" stroke-miterlimit="10.0" stroke-linecap="butt" stroke-linejoin="miter" stroke-opacity="1.0" stroke-width="1.8123784164069363" fill-opacity="1.0"><path d="M 107.1855,93.1265 l 6.4077,19.2232 Z"/></g><g stroke="rgb(0,0,0)" fill="rgb(0,0,0)" stroke-miterlimit="10.0" stroke-linecap="butt" stroke-linejoin="miter" stroke-opacity="1.0" stroke-width="1.8123784164069363" fill-opacity="1.0"><path d="M 107.1855,93.1265 c 6.4077,-32.0386 -6.4077,-32.0386 -6.4077 -19.2232Z"/></g><g stroke="rgb(0,0,0)" fill="rgb(0,0,0)" stroke-miterlimit="10.0" stroke-linecap="butt" stroke-linejoin="miter" stroke-opacity="1.0" stroke-width="1.8123784164069363" fill-opacity="1.0"><path d="M 107.1855,93.1265 c 32.0386,-19.2232 16.0193,-28.8348 6.4077 -32.0386Z"/></g><g stroke="rgb(0,0,0)" fill="rgb(0,0,0)" stroke-miterlimit="10.0" stroke-linecap="butt" stroke-linejoin="miter" stroke-opacity="1.0" stroke-width="1.8123784164069363" fill-opacity="1.0"><path d="M 107.1855,93.1265 l -12.8155,-0.0000 l -32.0386,19.2232 Z"/></g><g stroke="rgb(0,0,0)" fill="rgb(0,0,0)" stroke-miterlimit="10.0" stroke-linecap="butt" stroke-linejoin="miter" stroke-opacity="1.0" stroke-width="1.8123784164069363" fill-opacity="1.0"><path d="M 107.1855,93.1265 c 25.6309,12.8155 44.8541,6.4077 44.8541 -19.2232Z"/></g><g stroke="rgb(0,0,0)" fill="rgb(211,211,211)" stroke-miterlimit="10.0" stroke-linecap="butt" stroke-linejoin="miter" stroke-opacity="1.0" stroke-width="0.6589085720099751" fill-opacity="1.0"><path d="M 160.5728,28.2558 l -12.7041,11.7266 l -0.6912,-17.2752 Z"/></g><g stroke="rgb(0,0,0)" fill="rgb(128,128,128)" stroke-miterlimit="10.0" stroke-linecap="butt" stroke-linejoin="miter" stroke-opacity="1.0" stroke-width="0.6589085720099751" fill-opacity="1.0"><path d="M 163.6072,28.9559 l -13.3413,10.4212 l 2.3543,-16.7645 Z"/></g><g stroke="rgb(0,0,0)" fill="rgb(169,169,169)" stroke-miterlimit="10.0" stroke-linecap="butt" stroke-linejoin="miter" stroke-opacity="1.0" stroke-width="0.6589085720099751" fill-opacity="1.0"><path d="M 166.6667,30.4603 l -14.9431,7.2539 l 7.2539,-14.9431 Z"/></g><g stroke="rgb(0,0,0)" fill="rgb(211,211,211)" stroke-miterlimit="10.0" stroke-linecap="butt" stroke-linejoin="miter" stroke-opacity="1.0" stroke-width="0.6589085720099751" fill-opacity="1.0"><path d="M 138.3708,50.4578 l 11.7266,-12.7041 l -17.2752,-0.6912 Z"/></g><g stroke="rgb(0,0,0)" fill="rgb(128,128,128)" stroke-miterlimit="10.0" stroke-linecap="butt" stroke-linejoin="miter" stroke-opacity="1.0" stroke-width="0.6589085720099751" fill-opacity="1.0"><path d="M 139.0709,53.4921 l 10.4212,-13.3413 l -16.7645,2.3543 Z"/></g><g stroke="rgb(0,0,0)" fill="rgb(169,169,169)" stroke-miterlimit="10.0" stroke-linecap="butt" stroke-linejoin="miter" stroke-opacity="1.0" stroke-width="0.6589085720099751" fill-opacity="1.0"><path d="M 140.5753,56.5516 l 7.2539,-14.9431 l -14.9431,7.2539 Z"/></g><g stroke="rgb(0,0,0)" fill="rgb(70,0,70)" stroke-miterlimit="10.0" stroke-linecap="butt" stroke-linejoin="miter" stroke-opacity="1.0" stroke-width="0.6589085720099751" fill-opacity="1.0"><path d="M 142.3525,28.3928 c -0.3539,-0.3539 -0.9277,-0.3539 -1.2815 -0.0000c -0.3539,0.3539 -0.3539,0.9277 -0.0000 1.2815c 0.3539,0.3539 0.9277,0.3539 1.2815 0.0000c 0.3539,-0.3539 0.3539,-0.9277 0.0000 -1.2815Z"/></g><g stroke="rgb(0,0,0)" fill="rgb(70,0,70)" stroke-miterlimit="10.0" stroke-linecap="butt" stroke-linejoin="miter" stroke-opacity="1.0" stroke-width="0.6589085720099751" fill-opacity="1.0"><path d="M 139.7894,30.9559 c -0.3539,-0.3539 -0.9277,-0.3539 -1.2815 -0.0000c -0.3539,0.3539 -0.3539,0.9277 -0.0000 1.2815c 0.3539,0.3539 0.9277,0.3539 1.2815 0.0000c 0.3539,-0.3539 0.3539,-0.9277 0.0000 -1.2815Z"/></g><g stroke="rgb(0,0,0)" fill="rgb(70,0,70)" stroke-miterlimit="10.0" stroke-linecap="butt" stroke-linejoin="miter" stroke-opacity="1.0" stroke-width="0.6589085720099751" fill-opacity="1.0"><path d="M 144.9156,30.9559 c -1.0617,-1.0617 -2.7830,-1.0617 -3.8446 -0.0000c -1.0617,1.0617 -1.0617,2.7830 -0.0000 3.8446c 1.0617,1.0617 2.7830,1.0617 3.8446 0.0000c 1.0617,-1.0617 1.0617,-2.7830 0.0000 -3.8446Z"/></g><g stroke="rgb(0,0,0)" fill="rgb(50,0,50)" stroke-miterlimit="10.0" stroke-linecap="butt" stroke-linejoin="miter" stroke-opacity="1.0" stroke-width="0.6589085720099751" fill-opacity="1.0"><path d="M 154.5272,36.7229 c -3.5389,-3.5389 -8.1290,-4.6864 -10.2524 -2.5631c -2.1233,2.1233 -0.9758,6.7135 2.5631 10.2524c 3.5389,3.5389 8.1290,4.6864 10.2524 2.5631c 2.1233,-2.1233 0.9758,-6.7135 -2.5631 -10.2524Z"/></g><g stroke="rgb(0,0,0)" fill="rgb(139,69,19)" stroke-miterlimit="10.0" stroke-linecap="butt" stroke-linejoin="miter" stroke-opacity="1.0" stroke-width="0.6589085720099751" fill-opacity="1.0"><path d="M 152.1836,37.2907 c -0.7735,0.2073 -1.2325,1.0023 -1.0252 1.7758c 0.2073,0.7735 1.0023,1.2325 1.7758 1.0252c 0.7735,-0.2073 1.2325,-1.0023 1.0252 -1.7758c -0.2073,-0.7735 -1.0023,-1.2325 -1.7758 -1.0252Z"/></g><g stroke="rgb(0,0,0)" fill="rgb(222,184,135)" stroke-miterlimit="10.0" stroke-linecap="butt" stroke-linejoin="miter" stroke-opacity="1.0" stroke-width="0.6589085720099751" fill-opacity="1.0"><path d="M 138.9601,40.4586 l -8.7531,2.3454 l 0.9382,3.5012 l 8.7531,-2.3454 Z"/></g><g stroke="rgb(0,0,0)" fill="rgb(205,133,63)" stroke-miterlimit="10.0" stroke-linecap="butt" stroke-linejoin="miter" stroke-opacity="1.0" stroke-width="0.6589085720099751" fill-opacity="1.0"><path d="M 152.2774,37.6408 l -14.0050,3.7526 l 0.5629,2.1007 l 14.0050,-3.7526 Z"/></g><g stroke="rgb(0,0,0)" fill="rgb(211,211,211)" stroke-miterlimit="10.0" stroke-linecap="butt" stroke-linejoin="miter" stroke-opacity="1.0" stroke-width="0.6589085720099751" fill-opacity="1.0"><path d="M 109.3981,87.4930 l -0.1604,-8.3038 l -5.0106,6.6236 Z"/></g><g stroke="rgb(0,0,0)" fill="rgb(211,211,211)" stroke-miterlimit="10.0" stroke-linecap="butt" stroke-linejoin="miter" stroke-opacity="1.0" stroke-width="0.6589085720099751" fill-opacity="1.0"><path d="M 81.1458,85.8129 l -5.0106,-6.6236 l -0.1604,8.3038 Z"/></g><g stroke="rgb(255,192,203)" stroke-dashoffset="0.0" fill="rgb(211,211,211)" stroke-miterlimit="10.0" stroke-dasharray="3.6247568328138726,0.9061892082034682" stroke-linecap="butt" stroke-linejoin="miter" stroke-opacity="1.0" stroke-width="1.6472714300249376" fill-opacity="1.0"><path d="M 110.8102,94.9388 c 0.0000,-10.0095 -8.1143,-18.1238 -18.1238 -18.1238c -10.0095,-0.0000 -18.1238,8.1143 -18.1238 18.1238c -0.0000,10.0095 8.1143,18.1238 18.1238 18.1238c 10.0095,0.0000 18.1238,-8.1143 18.1238 -18.1238Z"/></g><g stroke="rgb(0,0,0)" fill="rgb(0,0,0)" stroke-miterlimit="10.0" stroke-linecap="butt" stroke-linejoin="miter" stroke-opacity="1.0" stroke-width="0.5" fill-opacity="0.0"><path d="M 105.3731,98.5636 h 10.8743 "/></g><g stroke="rgb(0,0,0)" fill="rgb(0,0,0)" stroke-miterlimit="10.0" stroke-linecap="butt" stroke-linejoin="miter" stroke-opacity="1.0" stroke-width="0.5" fill-opacity="0.0"><path d="M 69.1255,98.5636 h 10.8743 "/></g><g stroke="rgb(0,0,0)" fill="rgb(0,0,0)" stroke-miterlimit="10.0" stroke-linecap="butt" stroke-linejoin="miter" stroke-opacity="1.0" stroke-width="0.5" fill-opacity="0.0"><path d="M 105.3731,96.7512 h 10.8743 "/></g><g stroke="rgb(0,0,0)" fill="rgb(0,0,0)" stroke-miterlimit="10.0" stroke-linecap="butt" stroke-linejoin="miter" stroke-opacity="1.0" stroke-width="0.5" fill-opacity="0.0"><path d="M 69.1255,96.7512 h 10.8743 "/></g><g stroke="rgb(0,0,0)" fill="rgb(0,0,0)" stroke-miterlimit="10.0" stroke-linecap="butt" stroke-linejoin="miter" stroke-opacity="1.0" stroke-width="0.5" fill-opacity="0.0"><path d="M 105.3731,94.9388 h 10.8743 "/></g><g stroke="rgb(0,0,0)" fill="rgb(0,0,0)" stroke-miterlimit="10.0" stroke-linecap="butt" stroke-linejoin="miter" stroke-opacity="1.0" stroke-width="0.5" fill-opacity="0.0"><path d="M 69.1255,94.9388 h 10.8743 "/></g><g stroke="rgb(0,0,0)" fill="rgb(0,0,0)" stroke-miterlimit="10.0" stroke-linecap="butt" stroke-linejoin="miter" stroke-opacity="1.0" stroke-width="0.5" fill-opacity="0.0"><path d="M 89.0617,102.1884 h 7.2495 "/></g><g stroke="rgb(0,0,0)" fill="rgb(0,0,0)" stroke-miterlimit="10.0" stroke-linecap="butt" stroke-linejoin="miter" stroke-opacity="1.0" stroke-width="0.5" fill-opacity="0.0"><path d="M 92.6864,94.9388 v 7.2495 "/></g><g stroke="rgb(0,0,0)" fill="rgb(255,192,203)" stroke-miterlimit="10.0" stroke-linecap="butt" stroke-linejoin="miter" stroke-opacity="1.0" stroke-width="0.6589085720099751" fill-opacity="1.0"><path d="M 90.3303,93.5786 l 2.3561,4.0809 l 2.3561,-4.0809 Z"/></g><g stroke="rgb(0,0,0)" fill="rgb(0,0,0)" stroke-miterlimit="10.0" stroke-linecap="butt" stroke-linejoin="miter" stroke-opacity="1.0" stroke-width="0.6589085720099751" fill-opacity="1.0"><path d="M 102.2920,90.4079 c 0.0000,-1.3012 -1.0549,-2.3561 -2.3561 -2.3561c -1.3012,-0.0000 -2.3561,1.0549 -2.3561 2.3561c -0.0000,1.3012 1.0549,2.3561 2.3561 2.3561c 1.3012,0.0000 2.3561,-1.0549 2.3561 -2.3561Z"/></g><g stroke="rgb(0,0,0)" fill="rgb(0,0,0)" stroke-miterlimit="10.0" stroke-linecap="butt" stroke-linejoin="miter" stroke-opacity="1.0" stroke-width="0.6589085720099751" fill-opacity="1.0"><path d="M 87.7930,90.4079 c 0.0000,-1.3012 -1.0549,-2.3561 -2.3561 -2.3561c -1.3012,-0.0000 -2.3561,1.0549 -2.3561 2.3561c -0.0000,1.3012 1.0549,2.3561 2.3561 2.3561c 1.3012,0.0000 2.3561,-1.0549 2.3561 -2.3561Z"/></g><g stroke="rgb(0,0,0)" fill="rgb(0,0,0)" stroke-miterlimit="10.0" stroke-linecap="butt" stroke-linejoin="miter" stroke-opacity="1.0" stroke-width="0.6589085720099751" fill-opacity="1.0"><path d="M 87.7930,90.4079 c 0.0000,-1.3012 -1.0549,-2.3561 -2.3561 -2.3561c -1.3012,-0.0000 -2.3561,1.0549 -2.3561 2.3561c -0.0000,1.3012 1.0549,2.3561 2.3561 2.3561c 1.3012,0.0000 2.3561,-1.0549 2.3561 -2.3561Z"/></g><g stroke="rgb(0,0,0)" fill="rgb(0,0,0)" stroke-miterlimit="10.0" stroke-linecap="butt" stroke-linejoin="miter" stroke-opacity="1.0" stroke-width="5.0e-2" fill-opacity="0.0"><path d="M 113.5288,80.4398 v 4.5309 "/></g><g stroke="rgb(0,0,0)" fill="rgb(0,0,0)" stroke-miterlimit="10.0" stroke-linecap="butt" stroke-linejoin="miter" stroke-opacity="1.0" stroke-width="0.1" fill-opacity="0.0"><path d="M 113.5288,84.9708 h -3.6248 "/></g><g stroke="rgb(0,0,0)" fill="rgb(0,0,0)" stroke-miterlimit="10.0" stroke-linecap="butt" stroke-linejoin="miter" stroke-opacity="1.0" stroke-width="0.1" fill-opacity="0.0"><path d="M 113.5288,84.9708 h 3.6248 "/></g><g stroke="rgb(0,0,0)" fill="rgb(0,0,0)" stroke-miterlimit="10.0" stroke-linecap="butt" stroke-linejoin="miter" stroke-opacity="1.0" stroke-width="0.1" fill-opacity="0.0"><path d="M 112.6226,84.9708 l -1.8124,-2.7186 "/></g><g stroke="rgb(0,0,0)" fill="rgb(0,0,0)" stroke-miterlimit="10.0" stroke-linecap="butt" stroke-linejoin="miter" stroke-opacity="1.0" stroke-width="0.1" fill-opacity="0.0"><path d="M 112.6226,84.9708 l -1.8124,-2.7186 "/></g><g stroke="rgb(0,0,0)" fill="rgb(0,0,0)" stroke-miterlimit="10.0" stroke-linecap="butt" stroke-linejoin="miter" stroke-opacity="1.0" stroke-width="0.1" fill-opacity="0.0"><path d="M 114.4350,84.9708 l 1.8124,2.7186 "/></g><g stroke="rgb(0,0,0)" fill="rgb(0,0,0)" stroke-miterlimit="10.0" stroke-linecap="butt" stroke-linejoin="miter" stroke-opacity="1.0" stroke-width="0.1" fill-opacity="0.0"><path d="M 112.6226,84.9708 l -1.8124,2.7186 "/></g><g stroke="rgb(0,0,0)" fill="rgb(0,0,0)" stroke-miterlimit="10.0" stroke-linecap="butt" stroke-linejoin="miter" stroke-opacity="1.0" stroke-width="0.0" fill-opacity="1.0"><path d="M 114.8881,84.9708 c 0.0000,-0.7507 -0.6086,-1.3593 -1.3593 -1.3593c -0.7507,-0.0000 -1.3593,0.6086 -1.3593 1.3593c -0.0000,0.7507 0.6086,1.3593 1.3593 1.3593c 0.7507,0.0000 1.3593,-0.6086 1.3593 -1.3593Z"/></g><g stroke="rgb(0,0,0)" fill="rgb(128,0,128)" stroke-miterlimit="10.0" stroke-linecap="butt" stroke-linejoin="miter" stroke-opacity="1.0" stroke-width="0.5" fill-opacity="1.0"><path d="M 92.6864,35.1304 l -18.1238,36.2476 h 36.2476 Z"/></g><g stroke="rgb(0,0,0)" fill="rgb(255,255,0)" stroke-miterlimit="10.0" stroke-linecap="butt" stroke-linejoin="miter" stroke-opacity="1.0" stroke-width="0.5" fill-opacity="1.0"><path d="M 117.9571,75.9089 l -3.9239,-2.2655 v 4.5309 Z"/></g><g stroke="rgb(0,0,0)" fill="rgb(255,255,0)" stroke-miterlimit="10.0" stroke-linecap="butt" stroke-linejoin="miter" stroke-opacity="1.0" stroke-width="0.5" fill-opacity="1.0"><path d="M 108.8952,75.9089 l -3.9239,-2.2655 v 4.5309 Z"/></g><g stroke="rgb(0,0,0)" fill="rgb(255,255,0)" stroke-miterlimit="10.0" stroke-linecap="butt" stroke-linejoin="miter" stroke-opacity="1.0" stroke-width="0.5" fill-opacity="1.0"><path d="M 99.8333,75.9089 l -3.9239,-2.2655 v 4.5309 Z"/></g><g stroke="rgb(0,0,0)" fill="rgb(255,255,0)" stroke-miterlimit="10.0" stroke-linecap="butt" stroke-linejoin="miter" stroke-opacity="1.0" stroke-width="0.5" fill-opacity="1.0"><path d="M 90.7714,75.9089 l -3.9239,-2.2655 v 4.5309 Z"/></g><g stroke="rgb(0,0,0)" fill="rgb(255,255,0)" stroke-miterlimit="10.0" stroke-linecap="butt" stroke-linejoin="miter" stroke-opacity="1.0" stroke-width="0.5" fill-opacity="1.0"><path d="M 81.7095,75.9089 l -3.9239,-2.2655 v 4.5309 Z"/></g><g stroke="rgb(0,0,0)" fill="rgb(255,255,0)" stroke-miterlimit="10.0" stroke-linecap="butt" stroke-linejoin="miter" stroke-opacity="1.0" stroke-width="0.5" fill-opacity="1.0"><path d="M 72.6477,75.9089 l -3.9239,-2.2655 v 4.5309 Z"/></g><g stroke="rgb(0,0,0)" fill="rgb(0,0,0)" stroke-miterlimit="10.0" stroke-linecap="butt" stroke-linejoin="miter" stroke-opacity="1.0" stroke-width="0.0" fill-opacity="1.0"><path d="M 119.8721,75.9089 h 0.0000 c 0.0000,-2.5024 -2.0286,-4.5309 -4.5309 -4.5309h -45.3095 c -2.5024,-0.0000 -4.5309,2.0286 -4.5309 4.5309h 0.0000 c -0.0000,2.5024 2.0286,4.5309 4.5309 4.5309h 45.3095 c 2.5024,0.0000 4.5309,-2.0286 4.5309 -4.5309Z"/></g><g stroke="rgb(0,0,0)" fill="rgb(0,0,0)" stroke-miterlimit="10.0" stroke-linecap="butt" stroke-linejoin="miter" stroke-opacity="1.0" stroke-width="0.0" fill-opacity="1.0"><path d="M 107.6386,63.6753 l -0.0000,-2.7186 h -29.9042 l -0.0000,2.7186 Z"/></g><g stroke="rgb(0,0,0)" fill="rgb(255,165,0)" stroke-miterlimit="10.0" stroke-linecap="butt" stroke-linejoin="miter" stroke-opacity="1.0" stroke-width="0.0" fill-opacity="1.0"><path d="M 95.4050,63.2222 v -1.8124 c 0.0000,-0.5005 -0.4057,-0.9062 -0.9062 -0.9062h -3.6248 c -0.5005,-0.0000 -0.9062,0.4057 -0.9062 0.9062v 1.8124 c -0.0000,0.5005 0.4057,0.9062 0.9062 0.9062h 3.6248 c 0.5005,0.0000 0.9062,-0.4057 0.9062 -0.9062Z"/></g><g stroke="rgb(0,0,0)" fill="rgb(0,0,0)" stroke-miterlimit="10.0" stroke-linecap="butt" stroke-linejoin="miter" stroke-opacity="1.0" stroke-width="0.0" fill-opacity="1.0"><path d="M 94.4988,62.3160 h 0.0000 c 0.0000,-0.5005 -0.4057,-0.9062 -0.9062 -0.9062h -1.8124 c -0.5005,-0.0000 -0.9062,0.4057 -0.9062 0.9062h 0.0000 c -0.0000,0.5005 0.4057,0.9062 0.9062 0.9062h 1.8124 c 0.5005,0.0000 0.9062,-0.4057 0.9062 -0.9062Z"/></g></svg>