<?xml version="1.0" encoding="UTF-8"?>
<!DOCTYPE svg PUBLIC "-//W3C//DTD SVG 1.1//EN"
    "http://www.w3.org/Graphics/SVG/1.1/DTD/svg11.dtd"><svg font-size="1" stroke="rgb(0,0,0)" width="200.0000" xmlns="http://www.w3.org/2000/svg" viewBox="0.0 0.0 200.0 43.38001638357359" xmlns:xlink="http://www.w3.org/1999/xlink" version="1.1" stroke-opacity="1" height="43.3800"><defs></defs><g stroke="rgb(0,0,0)" fill="rgb(211,211,211)" stroke-miterlimit="10.0" stroke-linecap="butt" stroke-linejoin="miter" stroke-opacity="1.0" stroke-width="0.5" fill-opacity="1.0"><path d="M 166.6667,15.7494 l -0.6399,-6.6252 l -19.9886,5.2847 Z"/></g><g stroke="rgb(0,0,0)" fill="rgb(211,211,211)" stroke-miterlimit="10.0" stroke-linecap="butt" stroke-linejoin="miter" stroke-opacity="1.0" stroke-width="0.5" fill-opacity="1.0"><path d="M 53.9618,14.4089 l -19.9886,-5.2847 l -0.6399,6.6252 Z"/></g><g stroke="rgb(255,192,203)" stroke-dashoffset="0.0" fill="rgb(211,211,211)" stroke-miterlimit="10.0" stroke-dasharray="2.89200109223824,0.72300027305956" stroke-linecap="butt" stroke-linejoin="miter" stroke-opacity="1.0" stroke-width="0.9314506576687097" fill-opacity="1.0"><path d="M 114.4600,21.6900 c 0.0000,-7.9860 -6.4740,-14.4600 -14.4600 -14.4600c -7.9860,-0.0000 -14.4600,6.4740 -14.4600 14.4600c -0.0000,7.9860 6.4740,14.4600 14.4600 14.4600c 7.9860,0.0000 14.4600,-6.4740 14.4600 -14.4600Z"/></g><g stroke="rgb(0,0,0)" fill="rgb(0,0,0)" stroke-miterlimit="10.0" stroke-linecap="butt" stroke-linejoin="miter" stroke-opacity="1.0" stroke-width="0.5" fill-opacity="0.0"><path d="M 110.1220,24.5820 h 8.6760 "/></g><g stroke="rgb(0,0,0)" fill="rgb(0,0,0)" stroke-miterlimit="10.0" stroke-linecap="butt" stroke-linejoin="miter" stroke-opacity="1.0" stroke-width="0.5" fill-opacity="0.0"><path d="M 81.2020,24.5820 h 8.6760 "/></g><g stroke="rgb(0,0,0)" fill="rgb(0,0,0)" stroke-miterlimit="10.0" stroke-linecap="butt" stroke-linejoin="miter" stroke-opacity="1.0" stroke-width="0.5" fill-opacity="0.0"><path d="M 110.1220,23.1360 h 8.6760 "/></g><g stroke="rgb(0,0,0)" fill="rgb(0,0,0)" stroke-miterlimit="10.0" stroke-linecap="butt" stroke-linejoin="miter" stroke-opacity="1.0" stroke-width="0.5" fill-opacity="0.0"><path d="M 81.2020,23.1360 h 8.6760 "/></g><g stroke="rgb(0,0,0)" fill="rgb(0,0,0)" stroke-miterlimit="10.0" stroke-linecap="butt" stroke-linejoin="miter" stroke-opacity="1.0" stroke-width="0.5" fill-opacity="0.0"><path d="M 110.1220,21.6900 h 8.6760 "/></g><g stroke="rgb(0,0,0)" fill="rgb(0,0,0)" stroke-miterlimit="10.0" stroke-linecap="butt" stroke-linejoin="miter" stroke-opacity="1.0" stroke-width="0.5" fill-opacity="0.0"><path d="M 81.2020,21.6900 h 8.6760 "/></g><g stroke="rgb(0,0,0)" fill="rgb(0,0,0)" stroke-miterlimit="10.0" stroke-linecap="butt" stroke-linejoin="miter" stroke-opacity="1.0" stroke-width="0.5" fill-opacity="0.0"><path d="M 97.1080,27.4740 h 5.7840 "/></g><g stroke="rgb(0,0,0)" fill="rgb(0,0,0)" stroke-miterlimit="10.0" stroke-linecap="butt" stroke-linejoin="miter" stroke-opacity="1.0" stroke-width="0.5" fill-opacity="0.0"><path d="M 100.0000,21.6900 v 5.7840 "/></g><g stroke="rgb(0,0,0)" fill="rgb(255,192,203)" stroke-miterlimit="10.0" stroke-linecap="butt" stroke-linejoin="miter" stroke-opacity="1.0" stroke-width="0.5" fill-opacity="1.0"><path d="M 98.1202,20.6047 l 1.8798,3.2559 l 1.8798,-3.2559 Z"/></g><g stroke="rgb(0,0,0)" fill="rgb(0,0,0)" stroke-miterlimit="10.0" stroke-linecap="butt" stroke-linejoin="miter" stroke-opacity="1.0" stroke-width="0.5" fill-opacity="1.0"><path d="M 107.6638,18.0750 c 0.0000,-1.0382 -0.8416,-1.8798 -1.8798 -1.8798c -1.0382,-0.0000 -1.8798,0.8416 -1.8798 1.8798c -0.0000,1.0382 0.8416,1.8798 1.8798 1.8798c 1.0382,0.0000 1.8798,-0.8416 1.8798 -1.8798Z"/></g><g stroke="rgb(0,0,0)" fill="rgb(0,0,0)" stroke-miterlimit="10.0" stroke-linecap="butt" stroke-linejoin="miter" stroke-opacity="1.0" stroke-width="0.5" fill-opacity="1.0"><path d="M 96.0958,18.0750 c 0.0000,-1.0382 -0.8416,-1.8798 -1.8798 -1.8798c -1.0382,-0.0000 -1.8798,0.8416 -1.8798 1.8798c -0.0000,1.0382 0.8416,1.8798 1.8798 1.8798c 1.0382,0.0000 1.8798,-0.8416 1.8798 -1.8798Z"/></g><g stroke="rgb(0,0,0)" fill="rgb(0,0,0)" stroke-miterlimit="10.0" stroke-linecap="butt" stroke-linejoin="miter" stroke-opacity="1.0" stroke-width="0.5" fill-opacity="1.0"><path d="M 96.0958,18.0750 c 0.0000,-1.0382 -0.8416,-1.8798 -1.8798 -1.8798c -1.0382,-0.0000 -1.8798,0.8416 -1.8798 1.8798c -0.0000,1.0382 0.8416,1.8798 1.8798 1.8798c 1.0382,0.0000 1.8798,-0.8416 1.8798 -1.8798Z"/></g></svg>