<?xml version="1.0" encoding="UTF-8"?>
<!DOCTYPE svg PUBLIC "-//W3C//DTD SVG 1.1//EN"
    "http://www.w3.org/Graphics/SVG/1.1/DTD/svg11.dtd"><svg font-size="1" stroke="rgb(0,0,0)" width="200.0000" xmlns="http://www.w3.org/2000/svg" viewBox="0.0 0.0 200.0 132.61759695159046" xmlns:xlink="http://www.w3.org/1999/xlink" version="1.1" stroke-opacity="1" height="132.6176"><defs></defs><g stroke="rgb(0,0,0)" fill="rgb(211,211,211)" stroke-miterlimit="10.0" stroke-linecap="butt" stroke-linejoin="miter" stroke-opacity="1.0" stroke-width="0.6514417166908253" fill-opacity="1.0"><path d="M 156.7290,71.5825 l -62.4237,-2.4977 l 42.3741,-45.9063 Z"/></g><g stroke="rgb(0,0,0)" fill="rgb(128,128,128)" stroke-miterlimit="10.0" stroke-linecap="butt" stroke-linejoin="miter" stroke-opacity="1.0" stroke-width="0.6514417166908253" fill-opacity="1.0"><path d="M 162.6933,81.1245 l -60.7161,-7.4613 l 48.8511,-36.8197 Z"/></g><g stroke="rgb(0,0,0)" fill="rgb(169,169,169)" stroke-miterlimit="10.0" stroke-linecap="butt" stroke-linejoin="miter" stroke-opacity="1.0" stroke-width="0.6514417166908253" fill-opacity="1.0"><path d="M 166.6667,92.7858 l -56.7162,-19.6471 l 56.7162,-19.6471 Z"/></g><g stroke="rgb(0,0,0)" fill="rgb(211,211,211)" stroke-miterlimit="10.0" stroke-linecap="butt" stroke-linejoin="miter" stroke-opacity="1.0" stroke-width="0.6514417166908253" fill-opacity="1.0"><path d="M 43.2710,71.5825 l 62.4237,-2.4977 l -42.3741,-45.9063 Z"/></g><g stroke="rgb(0,0,0)" fill="rgb(128,128,128)" stroke-miterlimit="10.0" stroke-linecap="butt" stroke-linejoin="miter" stroke-opacity="1.0" stroke-width="0.6514417166908253" fill-opacity="1.0"><path d="M 37.3067,81.1245 l 60.7161,-7.4613 l -48.8511,-36.8197 Z"/></g><g stroke="rgb(0,0,0)" fill="rgb(169,169,169)" stroke-miterlimit="10.0" stroke-linecap="butt" stroke-linejoin="miter" stroke-opacity="1.0" stroke-width="0.6514417166908253" fill-opacity="1.0"><path d="M 33.3333,92.7858 l 56.7162,-19.6471 l -56.7162,-19.6471 Z"/></g><g stroke="rgb(0,0,0)" fill="rgb(70,0,70)" stroke-miterlimit="10.0" stroke-linecap="butt" stroke-linejoin="miter" stroke-opacity="1.0" stroke-width="0.6514417166908253" fill-opacity="1.0"><path d="M 109.8235,25.3774 c 0.0000,-1.8085 -1.4660,-3.2745 -3.2745 -3.2745c -1.8085,-0.0000 -3.2745,1.4660 -3.2745 3.2745c -0.0000,1.8085 1.4660,3.2745 3.2745 3.2745c 1.8085,0.0000 3.2745,-1.4660 3.2745 -3.2745Z"/></g><g stroke="rgb(0,0,0)" fill="rgb(70,0,70)" stroke-miterlimit="10.0" stroke-linecap="butt" stroke-linejoin="miter" stroke-opacity="1.0" stroke-width="0.6514417166908253" fill-opacity="1.0"><path d="M 96.7255,25.3774 c 0.0000,-1.8085 -1.4660,-3.2745 -3.2745 -3.2745c -1.8085,-0.0000 -3.2745,1.4660 -3.2745 3.2745c -0.0000,1.8085 1.4660,3.2745 3.2745 3.2745c 1.8085,0.0000 3.2745,-1.4660 3.2745 -3.2745Z"/></g><g stroke="rgb(0,0,0)" fill="rgb(70,0,70)" stroke-miterlimit="10.0" stroke-linecap="butt" stroke-linejoin="miter" stroke-opacity="1.0" stroke-width="0.6514417166908253" fill-opacity="1.0"><path d="M 109.8235,38.4755 c 0.0000,-5.4254 -4.3981,-9.8235 -9.8235 -9.8235c -5.4254,-0.0000 -9.8235,4.3981 -9.8235 9.8235c -0.0000,5.4254 4.3981,9.8235 9.8235 9.8235c 5.4254,0.0000 9.8235,-4.3981 9.8235 -9.8235Z"/></g><g stroke="rgb(0,0,0)" fill="rgb(50,0,50)" stroke-miterlimit="10.0" stroke-linecap="butt" stroke-linejoin="miter" stroke-opacity="1.0" stroke-width="0.6514417166908253" fill-opacity="1.0"><path d="M 119.6471,77.7696 c 0.0000,-18.0846 -8.7963,-32.7451 -19.6471 -32.7451c -10.8508,-0.0000 -19.6471,14.6605 -19.6471 32.7451c -0.0000,18.0846 8.7963,32.7451 19.6471 32.7451c 10.8508,0.0000 19.6471,-14.6605 19.6471 -32.7451Z"/></g><g stroke="rgb(0,0,0)" fill="rgb(139,69,19)" stroke-miterlimit="10.0" stroke-linecap="butt" stroke-linejoin="miter" stroke-opacity="1.0" stroke-width="0.6514417166908253" fill-opacity="1.0"><path d="M 112.2080,73.2323 c -2.5059,-1.4468 -5.7101,-0.5882 -7.1569 1.9177c -1.4468,2.5059 -0.5882,5.7101 1.9177 7.1569c 2.5059,1.4468 5.7101,0.5882 7.1569 -1.9177c 1.4468,-2.5059 0.5882,-5.7101 -1.9177 -7.1569Z"/></g><g stroke="rgb(0,0,0)" fill="rgb(222,184,135)" stroke-miterlimit="10.0" stroke-linecap="butt" stroke-linejoin="miter" stroke-opacity="1.0" stroke-width="0.6514417166908253" fill-opacity="1.0"><path d="M 70.3258,47.5391 l -28.3581,-16.3725 l -6.5490,11.3432 l 28.3581,16.3725 Z"/></g><g stroke="rgb(0,0,0)" fill="rgb(205,133,63)" stroke-miterlimit="10.0" stroke-linecap="butt" stroke-linejoin="miter" stroke-opacity="1.0" stroke-width="0.6514417166908253" fill-opacity="1.0"><path d="M 111.5531,74.3666 l -45.3729,-26.1961 l -3.9294,6.8059 l 45.3729,26.1961 Z"/></g></svg>