<?xml version="1.0" encoding="UTF-8"?>
<!DOCTYPE svg PUBLIC "-//W3C//DTD SVG 1.1//EN"
    "http://www.w3.org/Graphics/SVG/1.1/DTD/svg11.dtd"><svg font-size="1" stroke="rgb(0,0,0)" width="200.0000" xmlns="http://www.w3.org/2000/svg" viewBox="0.0 0.0 200.0 208.86751345948127" xmlns:xlink="http://www.w3.org/1999/xlink" version="1.1" stroke-opacity="1" height="208.8675"><defs></defs><g stroke="rgb(0,0,0)" fill="rgb(211,211,211)" stroke-miterlimit="10.0" stroke-linecap="butt" stroke-linejoin="miter" stroke-opacity="1.0" stroke-width="0.817542685778755" fill-opacity="1.0"><path d="M 156.6667,63.6788 l -10.0000,-28.8675 l -10.0000,28.8675 Z"/></g><g stroke="rgb(0,0,0)" fill="rgb(211,211,211)" stroke-miterlimit="10.0" stroke-linecap="butt" stroke-linejoin="miter" stroke-opacity="1.0" stroke-width="0.817542685778755" fill-opacity="1.0"><path d="M 63.3333,63.6788 l -10.0000,-28.8675 l -10.0000,28.8675 Z"/></g><g stroke="rgb(0,0,0)" fill="rgb(211,211,211)" stroke-miterlimit="10.0" stroke-linecap="butt" stroke-linejoin="miter" stroke-opacity="1.0" stroke-width="0.0" fill-opacity="1.0"><path d="M 166.6667,107.3896 c 0.0000,-36.8190 -29.8477,-66.6667 -66.6667 -66.6667c -36.8190,-0.0000 -66.6667,29.8477 -66.6667 66.6667c -0.0000,36.8190 29.8477,66.6667 66.6667 66.6667c 36.8190,0.0000 66.6667,-29.8477 66.6667 -66.6667Z"/></g><g stroke="rgb(0,0,0)" fill="rgb(0,0,0)" stroke-miterlimit="10.0" stroke-linecap="butt" stroke-linejoin="miter" stroke-opacity="1.0" stroke-width="0.5" fill-opacity="0.0"><path d="M 113.3333,100.7229 h 40.0000 "/></g><g stroke="rgb(0,0,0)" fill="rgb(0,0,0)" stroke-miterlimit="10.0" stroke-linecap="butt" stroke-linejoin="miter" stroke-opacity="1.0" stroke-width="0.5" fill-opacity="0.0"><path d="M 46.6667,100.7229 h 40.0000 "/></g><g stroke="rgb(0,0,0)" fill="rgb(0,0,0)" stroke-miterlimit="10.0" stroke-linecap="butt" stroke-linejoin="miter" stroke-opacity="1.0" stroke-width="0.5" fill-opacity="0.0"><path d="M 113.3333,114.0563 h 40.0000 "/></g><g stroke="rgb(0,0,0)" fill="rgb(0,0,0)" stroke-miterlimit="10.0" stroke-linecap="butt" stroke-linejoin="miter" stroke-opacity="1.0" stroke-width="0.5" fill-opacity="0.0"><path d="M 46.6667,114.0563 h 40.0000 "/></g><g stroke="rgb(0,0,0)" fill="rgb(0,0,0)" stroke-miterlimit="10.0" stroke-linecap="butt" stroke-linejoin="miter" stroke-opacity="1.0" stroke-width="0.5" fill-opacity="0.0"><path d="M 113.3333,107.3896 h 40.0000 "/></g><g stroke="rgb(0,0,0)" fill="rgb(0,0,0)" stroke-miterlimit="10.0" stroke-linecap="butt" stroke-linejoin="miter" stroke-opacity="1.0" stroke-width="0.5" fill-opacity="0.0"><path d="M 46.6667,107.3896 h 40.0000 "/></g><g stroke="rgb(0,0,0)" fill="rgb(255,192,203)" stroke-miterlimit="10.0" stroke-linecap="butt" stroke-linejoin="miter" stroke-opacity="1.0" stroke-width="0.817542685778755" fill-opacity="1.0"><path d="M 96.6667,105.4651 l 3.3333,5.7735 l 3.3333,-5.7735 Z"/></g><g stroke="rgb(0,0,0)" fill="rgb(0,0,0)" stroke-miterlimit="10.0" stroke-linecap="butt" stroke-linejoin="miter" stroke-opacity="1.0" stroke-width="0.817542685778755" fill-opacity="1.0"><path d="M 133.3333,87.3896 c 0.0000,-3.6819 -2.9848,-6.6667 -6.6667 -6.6667c -3.6819,-0.0000 -6.6667,2.9848 -6.6667 6.6667c -0.0000,3.6819 2.9848,6.6667 6.6667 6.6667c 3.6819,0.0000 6.6667,-2.9848 6.6667 -6.6667Z"/></g><g stroke="rgb(0,0,0)" fill="rgb(0,0,0)" stroke-miterlimit="10.0" stroke-linecap="butt" stroke-linejoin="miter" stroke-opacity="1.0" stroke-width="0.817542685778755" fill-opacity="1.0"><path d="M 80.0000,87.3896 c 0.0000,-3.6819 -2.9848,-6.6667 -6.6667 -6.6667c -3.6819,-0.0000 -6.6667,2.9848 -6.6667 6.6667c -0.0000,3.6819 2.9848,6.6667 6.6667 6.6667c 3.6819,0.0000 6.6667,-2.9848 6.6667 -6.6667Z"/></g></svg>