<?xml version="1.0" encoding="UTF-8"?>
<!DOCTYPE svg PUBLIC "-//W3C//DTD SVG 1.1//EN"
    "http://www.w3.org/Graphics/SVG/1.1/DTD/svg11.dtd"><svg font-size="1" stroke="rgb(0,0,0)" width="200.0000" xmlns="http://www.w3.org/2000/svg" viewBox="0.0 0.0 200.0 240.0" xmlns:xlink="http://www.w3.org/1999/xlink" version="1.1" stroke-opacity="1" height="240.0000"><defs></defs><g stroke="rgb(0,0,0)" fill="rgb(211,211,211)" stroke-miterlimit="10.0" stroke-linecap="butt" stroke-linejoin="miter" stroke-opacity="1.0" stroke-width="0.8763560920082658" fill-opacity="1.0"><path d="M 130.7361,152.9723 l -0.2950,-15.2724 l -9.2156,12.1822 Z"/></g><g stroke="rgb(0,0,0)" fill="rgb(211,211,211)" stroke-miterlimit="10.0" stroke-linecap="butt" stroke-linejoin="miter" stroke-opacity="1.0" stroke-width="0.8763560920082658" fill-opacity="1.0"><path d="M 78.7744,149.8821 l -9.2156,-12.1822 l -0.2950,15.2724 Z"/></g><g stroke="rgb(255,192,203)" stroke-dashoffset="0.0" fill="rgb(211,211,211)" stroke-miterlimit="10.0" stroke-dasharray="6.666666666666668,1.666666666666667" stroke-linecap="butt" stroke-linejoin="miter" stroke-opacity="1.0" stroke-width="2.1908902300206647" fill-opacity="1.0"><path d="M 133.3333,166.6667 c 0.0000,-18.4095 -14.9238,-33.3333 -33.3333 -33.3333c -18.4095,-0.0000 -33.3333,14.9238 -33.3333 33.3333c -0.0000,18.4095 14.9238,33.3333 33.3333 33.3333c 18.4095,0.0000 33.3333,-14.9238 33.3333 -33.3333Z"/></g><g stroke="rgb(0,0,0)" fill="rgb(0,0,0)" stroke-miterlimit="10.0" stroke-linecap="butt" stroke-linejoin="miter" stroke-opacity="1.0" stroke-width="0.5" fill-opacity="0.0"><path d="M 123.3333,173.3333 h 20.0000 "/></g><g stroke="rgb(0,0,0)" fill="rgb(0,0,0)" stroke-miterlimit="10.0" stroke-linecap="butt" stroke-linejoin="miter" stroke-opacity="1.0" stroke-width="0.5" fill-opacity="0.0"><path d="M 56.6667,173.3333 h 20.0000 "/></g><g stroke="rgb(0,0,0)" fill="rgb(0,0,0)" stroke-miterlimit="10.0" stroke-linecap="butt" stroke-linejoin="miter" stroke-opacity="1.0" stroke-width="0.5" fill-opacity="0.0"><path d="M 123.3333,170.0000 h 20.0000 "/></g><g stroke="rgb(0,0,0)" fill="rgb(0,0,0)" stroke-miterlimit="10.0" stroke-linecap="butt" stroke-linejoin="miter" stroke-opacity="1.0" stroke-width="0.5" fill-opacity="0.0"><path d="M 56.6667,170.0000 h 20.0000 "/></g><g stroke="rgb(0,0,0)" fill="rgb(0,0,0)" stroke-miterlimit="10.0" stroke-linecap="butt" stroke-linejoin="miter" stroke-opacity="1.0" stroke-width="0.5" fill-opacity="0.0"><path d="M 123.3333,166.6667 h 20.0000 "/></g><g stroke="rgb(0,0,0)" fill="rgb(0,0,0)" stroke-miterlimit="10.0" stroke-linecap="butt" stroke-linejoin="miter" stroke-opacity="1.0" stroke-width="0.5" fill-opacity="0.0"><path d="M 56.6667,166.6667 h 20.0000 "/></g><g stroke="rgb(0,0,0)" fill="rgb(0,0,0)" stroke-miterlimit="10.0" stroke-linecap="butt" stroke-linejoin="miter" stroke-opacity="1.0" stroke-width="0.5" fill-opacity="0.0"><path d="M 93.3333,180.0000 h 13.3333 "/></g><g stroke="rgb(0,0,0)" fill="rgb(0,0,0)" stroke-miterlimit="10.0" stroke-linecap="butt" stroke-linejoin="miter" stroke-opacity="1.0" stroke-width="0.5" fill-opacity="0.0"><path d="M 100.0000,166.6667 v 13.3333 "/></g><g stroke="rgb(0,0,0)" fill="rgb(255,192,203)" stroke-miterlimit="10.0" stroke-linecap="butt" stroke-linejoin="miter" stroke-opacity="1.0" stroke-width="0.8763560920082658" fill-opacity="1.0"><path d="M 95.6667,164.1648 l 4.3333,7.5056 l 4.3333,-7.5056 Z"/></g><g stroke="rgb(0,0,0)" fill="rgb(0,0,0)" stroke-miterlimit="10.0" stroke-linecap="butt" stroke-linejoin="miter" stroke-opacity="1.0" stroke-width="0.8763560920082658" fill-opacity="1.0"><path d="M 117.6667,158.3333 c 0.0000,-2.3932 -1.9401,-4.3333 -4.3333 -4.3333c -2.3932,-0.0000 -4.3333,1.9401 -4.3333 4.3333c -0.0000,2.3932 1.9401,4.3333 4.3333 4.3333c 2.3932,0.0000 4.3333,-1.9401 4.3333 -4.3333Z"/></g><g stroke="rgb(0,0,0)" fill="rgb(0,0,0)" stroke-miterlimit="10.0" stroke-linecap="butt" stroke-linejoin="miter" stroke-opacity="1.0" stroke-width="0.8763560920082658" fill-opacity="1.0"><path d="M 91.0000,158.3333 c 0.0000,-2.3932 -1.9401,-4.3333 -4.3333 -4.3333c -2.3932,-0.0000 -4.3333,1.9401 -4.3333 4.3333c -0.0000,2.3932 1.9401,4.3333 4.3333 4.3333c 2.3932,0.0000 4.3333,-1.9401 4.3333 -4.3333Z"/></g><g stroke="rgb(0,0,0)" fill="rgb(0,0,0)" stroke-miterlimit="10.0" stroke-linecap="butt" stroke-linejoin="miter" stroke-opacity="1.0" stroke-width="0.8763560920082658" fill-opacity="1.0"><path d="M 91.0000,158.3333 c 0.0000,-2.3932 -1.9401,-4.3333 -4.3333 -4.3333c -2.3932,-0.0000 -4.3333,1.9401 -4.3333 4.3333c -0.0000,2.3932 1.9401,4.3333 4.3333 4.3333c 2.3932,0.0000 4.3333,-1.9401 4.3333 -4.3333Z"/></g><g stroke="rgb(0,0,0)" fill="rgb(0,0,0)" stroke-miterlimit="10.0" stroke-linecap="butt" stroke-linejoin="miter" stroke-opacity="1.0" stroke-width="5.0e-2" fill-opacity="0.0"><path d="M 138.3333,140.0000 v 8.3333 "/></g><g stroke="rgb(0,0,0)" fill="rgb(0,0,0)" stroke-miterlimit="10.0" stroke-linecap="butt" stroke-linejoin="miter" stroke-opacity="1.0" stroke-width="5.0e-2" fill-opacity="0.0"><path d="M 140.0000,148.3333 l 3.3333,-5.0000 "/></g><g stroke="rgb(0,0,0)" fill="rgb(0,0,0)" stroke-miterlimit="10.0" stroke-linecap="butt" stroke-linejoin="miter" stroke-opacity="1.0" stroke-width="5.0e-2" fill-opacity="0.0"><path d="M 136.6667,148.3333 l -3.3333,-5.0000 "/></g><g stroke="rgb(0,0,0)" fill="rgb(0,0,0)" stroke-miterlimit="10.0" stroke-linecap="butt" stroke-linejoin="miter" stroke-opacity="1.0" stroke-width="5.0e-2" fill-opacity="0.0"><path d="M 140.0000,148.3333 l 3.3333,5.0000 "/></g><g stroke="rgb(0,0,0)" fill="rgb(0,0,0)" stroke-miterlimit="10.0" stroke-linecap="butt" stroke-linejoin="miter" stroke-opacity="1.0" stroke-width="5.0e-2" fill-opacity="0.0"><path d="M 136.6667,148.3333 l -3.3333,5.0000 "/></g><g stroke="rgb(0,0,0)" fill="rgb(0,0,0)" stroke-miterlimit="10.0" stroke-linecap="butt" stroke-linejoin="miter" stroke-opacity="1.0" stroke-width="0.0" fill-opacity="1.0"><path d="M 140.8333,148.3333 c 0.0000,-1.3807 -1.1193,-2.5000 -2.5000 -2.5000c -1.3807,-0.0000 -2.5000,1.1193 -2.5000 2.5000c -0.0000,1.3807 1.1193,2.5000 2.5000 2.5000c 1.3807,0.0000 2.5000,-1.1193 2.5000 -2.5000Z"/></g><g stroke="rgb(0,0,0)" fill="rgb(128,0,128)" stroke-miterlimit="10.0" stroke-linecap="butt" stroke-linejoin="miter" stroke-opacity="1.0" stroke-width="0.5" fill-opacity="1.0"><path d="M 100.0000,56.6667 l -33.3333,66.6667 h 66.6667 Z"/></g><g stroke="rgb(0,0,0)" fill="rgb(255,255,0)" stroke-miterlimit="10.0" stroke-linecap="butt" stroke-linejoin="miter" stroke-opacity="1.0" stroke-width="0.5" fill-opacity="1.0"><path d="M 146.4779,131.6667 l -7.2169,-4.1667 v 8.3333 Z"/></g><g stroke="rgb(0,0,0)" fill="rgb(255,255,0)" stroke-miterlimit="10.0" stroke-linecap="butt" stroke-linejoin="miter" stroke-opacity="1.0" stroke-width="0.5" fill-opacity="1.0"><path d="M 129.8113,131.6667 l -7.2169,-4.1667 v 8.3333 Z"/></g><g stroke="rgb(0,0,0)" fill="rgb(255,255,0)" stroke-miterlimit="10.0" stroke-linecap="butt" stroke-linejoin="miter" stroke-opacity="1.0" stroke-width="0.5" fill-opacity="1.0"><path d="M 113.1446,131.6667 l -7.2169,-4.1667 v 8.3333 Z"/></g><g stroke="rgb(0,0,0)" fill="rgb(255,255,0)" stroke-miterlimit="10.0" stroke-linecap="butt" stroke-linejoin="miter" stroke-opacity="1.0" stroke-width="0.5" fill-opacity="1.0"><path d="M 96.4779,131.6667 l -7.2169,-4.1667 v 8.3333 Z"/></g><g stroke="rgb(0,0,0)" fill="rgb(255,255,0)" stroke-miterlimit="10.0" stroke-linecap="butt" stroke-linejoin="miter" stroke-opacity="1.0" stroke-width="0.5" fill-opacity="1.0"><path d="M 79.8113,131.6667 l -7.2169,-4.1667 v 8.3333 Z"/></g><g stroke="rgb(0,0,0)" fill="rgb(255,255,0)" stroke-miterlimit="10.0" stroke-linecap="butt" stroke-linejoin="miter" stroke-opacity="1.0" stroke-width="0.5" fill-opacity="1.0"><path d="M 63.1446,131.6667 l -7.2169,-4.1667 v 8.3333 Z"/></g><g stroke="rgb(0,0,0)" fill="rgb(0,0,0)" stroke-miterlimit="10.0" stroke-linecap="butt" stroke-linejoin="miter" stroke-opacity="1.0" stroke-width="0.0" fill-opacity="1.0"><path d="M 150.0000,131.6667 h 0.0000 c 0.0000,-4.6024 -3.7310,-8.3333 -8.3333 -8.3333h -83.3333 c -4.6024,-0.0000 -8.3333,3.7310 -8.3333 8.3333h 0.0000 c -0.0000,4.6024 3.7310,8.3333 8.3333 8.3333h 83.3333 c 4.6024,0.0000 8.3333,-3.7310 8.3333 -8.3333Z"/></g><g stroke="rgb(0,0,0)" fill="rgb(0,0,0)" stroke-miterlimit="10.0" stroke-linecap="butt" stroke-linejoin="miter" stroke-opacity="1.0" stroke-width="0.0" fill-opacity="1.0"><path d="M 127.5000,109.1667 l -0.0000,-5.0000 h -55.0000 l -0.0000,5.0000 Z"/></g><g stroke="rgb(0,0,0)" fill="rgb(255,165,0)" stroke-miterlimit="10.0" stroke-linecap="butt" stroke-linejoin="miter" stroke-opacity="1.0" stroke-width="0.0" fill-opacity="1.0"><path d="M 105.0000,108.3333 v -3.3333 c 0.0000,-0.9205 -0.7462,-1.6667 -1.6667 -1.6667h -6.6667 c -0.9205,-0.0000 -1.6667,0.7462 -1.6667 1.6667v 3.3333 c -0.0000,0.9205 0.7462,1.6667 1.6667 1.6667h 6.6667 c 0.9205,0.0000 1.6667,-0.7462 1.6667 -1.6667Z"/></g><g stroke="rgb(0,0,0)" fill="rgb(0,0,0)" stroke-miterlimit="10.0" stroke-linecap="butt" stroke-linejoin="miter" stroke-opacity="1.0" stroke-width="0.0" fill-opacity="1.0"><path d="M 103.3333,106.6667 h 0.0000 c 0.0000,-0.9205 -0.7462,-1.6667 -1.6667 -1.6667h -3.3333 c -0.9205,-0.0000 -1.6667,0.7462 -1.6667 1.6667h 0.0000 c -0.0000,0.9205 0.7462,1.6667 1.6667 1.6667h 3.3333 c 0.9205,0.0000 1.6667,-0.7462 1.6667 -1.6667Z"/></g></svg>