<?xml version="1.0" encoding="UTF-8"?>
<!DOCTYPE svg PUBLIC "-//W3C//DTD SVG 1.1//EN"
    "http://www.w3.org/Graphics/SVG/1.1/DTD/svg11.dtd"><svg font-size="1" stroke="rgb(0,0,0)" width="200.0000" xmlns="http://www.w3.org/2000/svg" viewBox="0.0 0.0 200.0 160.6673180457548" xmlns:xlink="http://www.w3.org/1999/xlink" version="1.1" stroke-opacity="1" height="160.6673"><defs></defs><g stroke="rgb(0,0,0)" fill="rgb(211,211,211)" stroke-miterlimit="10.0" stroke-linecap="butt" stroke-linejoin="miter" stroke-opacity="1.0" stroke-width="0.7170323686880637" fill-opacity="1.0"><path d="M 138.4615,48.9837 l -7.6923,-22.2058 l -7.6923,22.2058 Z"/></g><g stroke="rgb(0,0,0)" fill="rgb(211,211,211)" stroke-miterlimit="10.0" stroke-linecap="butt" stroke-linejoin="miter" stroke-opacity="1.0" stroke-width="0.7170323686880637" fill-opacity="1.0"><path d="M 76.9231,48.9837 l -7.6923,-22.2058 l -7.6923,22.2058 Z"/></g><g stroke="rgb(255,192,203)" stroke-dashoffset="0.0" fill="rgb(211,211,211)" stroke-miterlimit="10.0" stroke-dasharray="10.256410256410255,2.564102564102564" stroke-linecap="butt" stroke-linejoin="miter" stroke-opacity="1.0" stroke-width="1.7925809217201591" fill-opacity="1.0"><path d="M 151.2821,82.6074 c 0.0000,-28.3223 -22.9598,-51.2821 -51.2821 -51.2821c -28.3223,-0.0000 -51.2821,22.9598 -51.2821 51.2821c -0.0000,28.3223 22.9598,51.2821 51.2821 51.2821c 28.3223,0.0000 51.2821,-22.9598 51.2821 -51.2821Z"/></g><g stroke="rgb(0,0,0)" fill="rgb(0,0,0)" stroke-miterlimit="10.0" stroke-linecap="butt" stroke-linejoin="miter" stroke-opacity="1.0" stroke-width="0.5" fill-opacity="0.0"><path d="M 135.8974,92.8638 h 30.7692 "/></g><g stroke="rgb(0,0,0)" fill="rgb(0,0,0)" stroke-miterlimit="10.0" stroke-linecap="butt" stroke-linejoin="miter" stroke-opacity="1.0" stroke-width="0.5" fill-opacity="0.0"><path d="M 33.3333,92.8638 h 30.7692 "/></g><g stroke="rgb(0,0,0)" fill="rgb(0,0,0)" stroke-miterlimit="10.0" stroke-linecap="butt" stroke-linejoin="miter" stroke-opacity="1.0" stroke-width="0.5" fill-opacity="0.0"><path d="M 135.8974,87.7356 h 30.7692 "/></g><g stroke="rgb(0,0,0)" fill="rgb(0,0,0)" stroke-miterlimit="10.0" stroke-linecap="butt" stroke-linejoin="miter" stroke-opacity="1.0" stroke-width="0.5" fill-opacity="0.0"><path d="M 33.3333,87.7356 h 30.7692 "/></g><g stroke="rgb(0,0,0)" fill="rgb(0,0,0)" stroke-miterlimit="10.0" stroke-linecap="butt" stroke-linejoin="miter" stroke-opacity="1.0" stroke-width="0.5" fill-opacity="0.0"><path d="M 135.8974,82.6074 h 30.7692 "/></g><g stroke="rgb(0,0,0)" fill="rgb(0,0,0)" stroke-miterlimit="10.0" stroke-linecap="butt" stroke-linejoin="miter" stroke-opacity="1.0" stroke-width="0.5" fill-opacity="0.0"><path d="M 33.3333,82.6074 h 30.7692 "/></g><g stroke="rgb(0,0,0)" fill="rgb(0,0,0)" stroke-miterlimit="10.0" stroke-linecap="butt" stroke-linejoin="miter" stroke-opacity="1.0" stroke-width="0.5" fill-opacity="0.0"><path d="M 89.7436,103.1202 h 20.5128 "/></g><g stroke="rgb(0,0,0)" fill="rgb(0,0,0)" stroke-miterlimit="10.0" stroke-linecap="butt" stroke-linejoin="miter" stroke-opacity="1.0" stroke-width="0.5" fill-opacity="0.0"><path d="M 100.0000,82.6074 v 20.5128 "/></g><g stroke="rgb(0,0,0)" fill="rgb(255,192,203)" stroke-miterlimit="10.0" stroke-linecap="butt" stroke-linejoin="miter" stroke-opacity="1.0" stroke-width="0.7170323686880637" fill-opacity="1.0"><path d="M 93.3333,78.7584 l 6.6667,11.5470 l 6.6667,-11.5470 Z"/></g><g stroke="rgb(0,0,0)" fill="rgb(0,0,0)" stroke-miterlimit="10.0" stroke-linecap="butt" stroke-linejoin="miter" stroke-opacity="1.0" stroke-width="0.7170323686880637" fill-opacity="1.0"><path d="M 127.1795,69.7869 c 0.0000,-3.6819 -2.9848,-6.6667 -6.6667 -6.6667c -3.6819,-0.0000 -6.6667,2.9848 -6.6667 6.6667c -0.0000,3.6819 2.9848,6.6667 6.6667 6.6667c 3.6819,0.0000 6.6667,-2.9848 6.6667 -6.6667Z"/></g><g stroke="rgb(0,0,0)" fill="rgb(0,0,0)" stroke-miterlimit="10.0" stroke-linecap="butt" stroke-linejoin="miter" stroke-opacity="1.0" stroke-width="0.7170323686880637" fill-opacity="1.0"><path d="M 86.1538,69.7869 c 0.0000,-3.6819 -2.9848,-6.6667 -6.6667 -6.6667c -3.6819,-0.0000 -6.6667,2.9848 -6.6667 6.6667c -0.0000,3.6819 2.9848,6.6667 6.6667 6.6667c 3.6819,0.0000 6.6667,-2.9848 6.6667 -6.6667Z"/></g></svg>