<?xml version="1.0" encoding="UTF-8"?>
<!DOCTYPE svg PUBLIC "-//W3C//DTD SVG 1.1//EN"
    "http://www.w3.org/Graphics/SVG/1.1/DTD/svg11.dtd"><svg font-size="1" stroke="rgb(0,0,0)" width="200.0000" xmlns="http://www.w3.org/2000/svg" viewBox="0.0 0.0 200.0 207.4074074074074" xmlns:xlink="http://www.w3.org/1999/xlink" version="1.1" stroke-opacity="1" height="207.4074"><defs></defs><g stroke="rgb(0,0,0)" fill="rgb(0,0,0)" stroke-miterlimit="10.0" stroke-linecap="butt" stroke-linejoin="miter" stroke-opacity="1.0" stroke-width="0.8146801235477049" fill-opacity="1.0"><path d="M 67.2396,158.0247 l -12.8300,7.4074 l 12.8300,7.4074 Z"/></g><g stroke="rgb(0,0,0)" fill="rgb(255,255,255)" stroke-miterlimit="10.0" stroke-linecap="butt" stroke-linejoin="miter" stroke-opacity="1.0" stroke-width="0.8146801235477049" fill-opacity="1.0"><path d="M 92.5926,140.7407 c 0.0000,-2.7273 -2.2109,-4.9383 -4.9383 -4.9383c -2.7273,-0.0000 -4.9383,2.2109 -4.9383 4.9383c -0.0000,2.7273 2.2109,4.9383 4.9383 4.9383c 2.7273,0.0000 4.9383,-2.2109 4.9383 -4.9383Z"/></g><g stroke="rgb(0,0,0)" fill="rgb(0,0,0)" stroke-miterlimit="10.0" stroke-linecap="butt" stroke-linejoin="miter" stroke-opacity="1.0" stroke-width="4.938271604938271" fill-opacity="0.0"><path d="M 87.6543,140.7407 l -24.6914,24.6914 "/></g><g stroke="rgb(0,0,0)" fill="rgb(0,0,0)" stroke-miterlimit="10.0" stroke-linecap="butt" stroke-linejoin="miter" stroke-opacity="1.0" stroke-width="0.8146801235477049" fill-opacity="1.0"><path d="M 91.9310,133.3333 l -12.8300,7.4074 l 12.8300,7.4074 Z"/></g><g stroke="rgb(0,0,0)" fill="rgb(255,255,255)" stroke-miterlimit="10.0" stroke-linecap="butt" stroke-linejoin="miter" stroke-opacity="1.0" stroke-width="0.8146801235477049" fill-opacity="1.0"><path d="M 129.6296,116.0494 c 0.0000,-2.7273 -2.2109,-4.9383 -4.9383 -4.9383c -2.7273,-0.0000 -4.9383,2.2109 -4.9383 4.9383c -0.0000,2.7273 2.2109,4.9383 4.9383 4.9383c 2.7273,0.0000 4.9383,-2.2109 4.9383 -4.9383Z"/></g><g stroke="rgb(0,0,0)" fill="rgb(0,0,0)" stroke-miterlimit="10.0" stroke-linecap="butt" stroke-linejoin="miter" stroke-opacity="1.0" stroke-width="4.938271604938271" fill-opacity="0.0"><path d="M 124.6914,116.0494 l -37.0370,24.6914 "/></g><g stroke="rgb(0,0,0)" fill="rgb(0,0,0)" stroke-miterlimit="10.0" stroke-linecap="butt" stroke-linejoin="miter" stroke-opacity="1.0" stroke-width="0.8146801235477049" fill-opacity="1.0"><path d="M 128.9680,108.6420 l -12.8300,7.4074 l 12.8300,7.4074 Z"/></g><g stroke="rgb(0,0,0)" fill="rgb(255,255,255)" stroke-miterlimit="10.0" stroke-linecap="butt" stroke-linejoin="miter" stroke-opacity="1.0" stroke-width="0.8146801235477049" fill-opacity="1.0"><path d="M 166.6667,66.6667 c 0.0000,-2.7273 -2.2109,-4.9383 -4.9383 -4.9383c -2.7273,-0.0000 -4.9383,2.2109 -4.9383 4.9383c -0.0000,2.7273 2.2109,4.9383 4.9383 4.9383c 2.7273,0.0000 4.9383,-2.2109 4.9383 -4.9383Z"/></g><g stroke="rgb(0,0,0)" fill="rgb(0,0,0)" stroke-miterlimit="10.0" stroke-linecap="butt" stroke-linejoin="miter" stroke-opacity="1.0" stroke-width="4.938271604938271" fill-opacity="0.0"><path d="M 161.7284,66.6667 l -37.0370,49.3827 "/></g><g stroke="rgb(0,0,0)" fill="rgb(0,0,0)" stroke-miterlimit="10.0" stroke-linecap="butt" stroke-linejoin="miter" stroke-opacity="1.0" stroke-width="0.8146801235477049" fill-opacity="1.0"><path d="M 166.0051,59.2593 l -12.8300,7.4074 l 12.8300,7.4074 Z"/></g><g stroke="rgb(0,0,0)" fill="rgb(255,255,255)" stroke-miterlimit="10.0" stroke-linecap="butt" stroke-linejoin="miter" stroke-opacity="1.0" stroke-width="0.8146801235477049" fill-opacity="1.0"><path d="M 117.2840,41.9753 c 0.0000,-2.7273 -2.2109,-4.9383 -4.9383 -4.9383c -2.7273,-0.0000 -4.9383,2.2109 -4.9383 4.9383c -0.0000,2.7273 2.2109,4.9383 4.9383 4.9383c 2.7273,0.0000 4.9383,-2.2109 4.9383 -4.9383Z"/></g><g stroke="rgb(0,0,0)" fill="rgb(0,0,0)" stroke-miterlimit="10.0" stroke-linecap="butt" stroke-linejoin="miter" stroke-opacity="1.0" stroke-width="4.938271604938271" fill-opacity="0.0"><path d="M 112.3457,41.9753 l 49.3827,24.6914 "/></g><g stroke="rgb(0,0,0)" fill="rgb(0,0,0)" stroke-miterlimit="10.0" stroke-linecap="butt" stroke-linejoin="miter" stroke-opacity="1.0" stroke-width="0.8146801235477049" fill-opacity="1.0"><path d="M 116.6223,34.5679 l -12.8300,7.4074 l 12.8300,7.4074 Z"/></g><g stroke="rgb(0,0,0)" fill="rgb(255,255,255)" stroke-miterlimit="10.0" stroke-linecap="butt" stroke-linejoin="miter" stroke-opacity="1.0" stroke-width="0.8146801235477049" fill-opacity="1.0"><path d="M 43.2099,91.3580 c 0.0000,-2.7273 -2.2109,-4.9383 -4.9383 -4.9383c -2.7273,-0.0000 -4.9383,2.2109 -4.9383 4.9383c -0.0000,2.7273 2.2109,4.9383 4.9383 4.9383c 2.7273,0.0000 4.9383,-2.2109 4.9383 -4.9383Z"/></g><g stroke="rgb(0,0,0)" fill="rgb(0,0,0)" stroke-miterlimit="10.0" stroke-linecap="butt" stroke-linejoin="miter" stroke-opacity="1.0" stroke-width="4.938271604938271" fill-opacity="0.0"><path d="M 38.2716,91.3580 l 74.0741,-49.3827 "/></g></svg>